<svg width="56" height="56" viewBox="0 0 56 56" fill="none" xmlns="http://www.w3.org/2000/svg">
<g clip-path="url(#clip0_16_214)">
<path d="M53.6667 37.2633C53.6667 46.2933 46.3634 53.5967 37.3334 53.5967L39.7834 49.5133M2.33337 18.5967C2.33337 9.56667 9.63671 2.26334 18.6667 2.26334L16.2167 6.34667" stroke="#283A8F" stroke-width="3" stroke-linecap="round" stroke-linejoin="round"/>
<path d="M34.65 35.77C34.65 43.7267 28.21 50.1667 20.2534 50.1667C12.2967 50.1667 5.85669 43.7267 5.85669 35.77C5.85669 27.8133 12.2967 21.3733 20.2534 21.3733C20.6267 21.3733 20.9767 21.3967 21.3734 21.42C28.4434 21.9567 34.09 27.6033 34.6267 34.6733C34.6267 35.0233 34.65 35.3733 34.65 35.77Z" stroke="#283A8F" stroke-width="3" stroke-miterlimit="10" stroke-linecap="round" stroke-linejoin="round"/>
<path d="M50.1666 20.23C50.1666 28.1867 43.7266 34.6267 35.77 34.6267H34.6266C34.3618 31.1997 32.8805 27.9804 30.45 25.5499C28.0196 23.1195 24.8002 21.6381 21.3733 21.3733V20.23C21.3733 12.2733 27.8133 5.83334 35.77 5.83334C43.7266 5.83334 50.1666 12.2733 50.1666 20.23Z" stroke="#283A8F" stroke-width="3" stroke-miterlimit="10" stroke-linecap="round" stroke-linejoin="round"/>
</g>
<defs>
<clipPath id="clip0_16_214">
<rect width="56" height="56" fill="white"/>
</clipPath>
</defs>
</svg>
