<svg width="57" height="56" viewBox="0 0 57 56" fill="none" xmlns="http://www.w3.org/2000/svg">
<path d="M7.89673 17.36L28.5001 29.2833L48.9634 17.43M28.5001 50.4233V29.26" stroke="#283A8F" stroke-width="3" stroke-linecap="round" stroke-linejoin="round"/>
<path d="M23.67 5.78667L11.21 12.7167C8.38666 14.28 6.07666 18.2 6.07666 21.42V34.6033C6.07666 37.8233 8.38666 41.7433 11.21 43.3067L23.67 50.2367C26.33 51.7067 30.6933 51.7067 33.3533 50.2367L45.8133 43.3067C48.6367 41.7433 50.9467 37.8233 50.9467 34.6033V21.42C50.9467 18.2 48.6367 14.28 45.8133 12.7167L33.3533 5.78667C30.67 4.29334 26.33 4.29334 23.67 5.78667V5.78667Z" stroke="#283A8F" stroke-width="3" stroke-linecap="round" stroke-linejoin="round"/>
<path d="M40.1668 30.8933V22.3533L18.0234 9.56667" stroke="#283A8F" stroke-width="3" stroke-linecap="round" stroke-linejoin="round"/>
</svg>
