<svg width="44" height="45" viewBox="0 0 44 45" fill="none" xmlns="http://www.w3.org/2000/svg">
<path d="M29.3887 24.2833L26.217 25.3467C25.337 25.64 24.6587 26.3183 24.3654 27.1983L23.302 30.37C22.4037 33.1017 18.5537 33.0467 17.7104 30.315L14.1354 18.8017C13.4387 16.51 15.547 14.4017 17.802 15.0983L29.3337 18.6733C32.0654 19.535 32.102 23.385 29.3887 24.2833V24.2833Z" stroke="#283A8F" stroke-width="2" stroke-linecap="round" stroke-linejoin="round"/>
<path d="M22.3333 41.095C32.4588 41.095 40.6667 32.8871 40.6667 22.7616C40.6667 12.6361 32.4588 4.42831 22.3333 4.42831C12.2078 4.42831 4 12.6361 4 22.7616C4 32.8871 12.2078 41.095 22.3333 41.095Z" stroke="#283A8F" stroke-width="2" stroke-linecap="round" stroke-linejoin="round"/>
</svg>
