<svg width="24" height="24" viewBox="0 0 24 24" fill="none" xmlns="http://www.w3.org/2000/svg">
<path d="M18.2222 10H5.77778C4.79594 10 4 10.8954 4 12V19C4 20.1046 4.79594 21 5.77778 21H18.2222C19.2041 21 20 20.1046 20 19V12C20 10.8954 19.2041 10 18.2222 10Z" stroke="#607D8B" stroke-width="1.6" stroke-linecap="round" stroke-linejoin="round"/>
<path d="M7 10V8C7 6.67392 7.52678 5.40215 8.46447 4.46447C9.40215 3.52678 10.6739 3 12 3C13.3261 3 14.5979 3.52678 15.5355 4.46447C16.4732 5.40215 17 6.67392 17 8V10" stroke="#607D8B" stroke-width="1.6" stroke-linecap="round" stroke-linejoin="round"/>
</svg>
