<svg width="173" height="44" viewBox="0 0 173 44" fill="none" xmlns="http://www.w3.org/2000/svg">
<g clip-path="url(#clip0_40_132)">
<path d="M29.3887 23.5217L26.2171 24.585C25.3371 24.8783 24.6587 25.5567 24.3654 26.4367L23.3021 29.6083C22.4037 32.34 18.5537 32.285 17.7104 29.5533L14.1354 18.04C13.4387 15.7483 15.5471 13.64 17.8021 14.3367L29.3337 17.9117C32.0654 18.7733 32.1021 22.6233 29.3887 23.5217V23.5217Z" stroke="#283A8F" stroke-width="2" stroke-linecap="round" stroke-linejoin="round"/>
<path d="M22.3334 40.3333C32.4589 40.3333 40.6667 32.1255 40.6667 22C40.6667 11.8745 32.4589 3.66666 22.3334 3.66666C12.2079 3.66666 4.00005 11.8745 4.00005 22C4.00005 32.1255 12.2079 40.3333 22.3334 40.3333Z" stroke="#283A8F" stroke-width="2" stroke-linecap="round" stroke-linejoin="round"/>
<path d="M69.184 32L64.264 14.12H67.264L71.248 29.6H70.504L74.632 14.12H77.584L81.712 29.6H80.944L84.952 14.12H87.928L83.032 32H79.84L75.688 16.76H76.528L72.352 32H69.184ZM90.0355 32V14.12H92.6755L99.3955 23.432H98.0755L104.676 14.12H107.316V32H104.508V17.456L105.564 17.744L98.8195 26.96H98.5315L91.9315 17.744L92.8675 17.456V32H90.0355ZM117.276 32.288C116.156 32.288 115.116 32.08 114.156 31.664C113.196 31.232 112.38 30.648 111.708 29.912C111.036 29.176 110.54 28.328 110.22 27.368L112.62 26.36C113.052 27.464 113.684 28.312 114.516 28.904C115.348 29.496 116.308 29.792 117.396 29.792C118.036 29.792 118.596 29.696 119.076 29.504C119.556 29.296 119.924 29.008 120.18 28.64C120.452 28.272 120.588 27.848 120.588 27.368C120.588 26.712 120.404 26.192 120.036 25.808C119.668 25.424 119.124 25.12 118.404 24.896L115.044 23.84C113.7 23.424 112.676 22.792 111.972 21.944C111.268 21.08 110.916 20.072 110.916 18.92C110.916 17.912 111.164 17.032 111.66 16.28C112.156 15.512 112.836 14.912 113.7 14.48C114.58 14.048 115.58 13.832 116.7 13.832C117.772 13.832 118.748 14.024 119.628 14.408C120.508 14.776 121.26 15.288 121.884 15.944C122.524 16.6 122.988 17.36 123.276 18.224L120.924 19.256C120.572 18.312 120.02 17.584 119.268 17.072C118.532 16.56 117.676 16.304 116.7 16.304C116.108 16.304 115.588 16.408 115.14 16.616C114.692 16.808 114.34 17.096 114.084 17.48C113.844 17.848 113.724 18.28 113.724 18.776C113.724 19.352 113.908 19.864 114.276 20.312C114.644 20.76 115.204 21.096 115.956 21.32L119.076 22.304C120.5 22.736 121.572 23.36 122.292 24.176C123.012 24.976 123.372 25.976 123.372 27.176C123.372 28.168 123.108 29.048 122.58 29.816C122.068 30.584 121.356 31.192 120.444 31.64C119.532 32.072 118.476 32.288 117.276 32.288ZM130.746 32V14.12H133.578V32H130.746ZM137.021 32V19.016H139.614V21.56L139.302 21.224C139.622 20.408 140.134 19.792 140.838 19.376C141.542 18.944 142.358 18.728 143.286 18.728C144.246 18.728 145.094 18.936 145.83 19.352C146.566 19.768 147.142 20.344 147.557 21.08C147.974 21.816 148.182 22.664 148.182 23.624V32H145.494V24.344C145.494 23.688 145.374 23.136 145.134 22.688C144.894 22.224 144.55 21.872 144.102 21.632C143.67 21.376 143.174 21.248 142.614 21.248C142.054 21.248 141.55 21.376 141.102 21.632C140.67 21.872 140.334 22.224 140.094 22.688C139.854 23.152 139.734 23.704 139.734 24.344V32H137.021ZM157.252 32.288C155.956 32.288 154.804 31.992 153.796 31.4C152.804 30.792 152.012 29.976 151.42 28.952C150.844 27.928 150.556 26.768 150.556 25.472C150.556 24.192 150.844 23.04 151.42 22.016C151.996 20.992 152.788 20.192 153.796 19.616C154.804 19.024 155.956 18.728 157.252 18.728C158.132 18.728 158.956 18.888 159.724 19.208C160.492 19.512 161.156 19.936 161.716 20.48C162.292 21.024 162.716 21.656 162.988 22.376L160.612 23.48C160.34 22.808 159.9 22.272 159.292 21.872C158.7 21.456 158.02 21.248 157.252 21.248C156.516 21.248 155.852 21.432 155.26 21.8C154.684 22.152 154.228 22.656 153.892 23.312C153.556 23.952 153.388 24.68 153.388 25.496C153.388 26.312 153.556 27.048 153.892 27.704C154.228 28.344 154.684 28.848 155.26 29.216C155.852 29.584 156.516 29.768 157.252 29.768C158.036 29.768 158.716 29.568 159.292 29.168C159.884 28.752 160.324 28.2 160.612 27.512L162.988 28.64C162.732 29.328 162.316 29.952 161.74 30.512C161.18 31.056 160.516 31.488 159.748 31.808C158.98 32.128 158.148 32.288 157.252 32.288ZM166.839 32V28.88H169.599V32H166.839Z" fill="#1B275F"/>
</g>
<defs>
<clipPath id="clip0_40_132">
<rect width="173" height="44" fill="white"/>
</clipPath>
</defs>
</svg>
