<svg width="57" height="56" viewBox="0 0 57 56" fill="none" xmlns="http://www.w3.org/2000/svg">
<path d="M28.3333 35C30.1898 35 31.9703 34.2625 33.2831 32.9497C34.5958 31.637 35.3333 29.8565 35.3333 28C35.3333 26.1435 34.5958 24.363 33.2831 23.0503C31.9703 21.7375 30.1898 21 28.3333 21C26.4768 21 24.6963 21.7375 23.3836 23.0503C22.0708 24.363 21.3333 26.1435 21.3333 28C21.3333 29.8565 22.0708 31.637 23.3836 32.9497C24.6963 34.2625 26.4768 35 28.3333 35V35Z" stroke="white" stroke-width="3" stroke-miterlimit="10" stroke-linecap="round" stroke-linejoin="round"/>
<path d="M4.99997 30.0533V25.9467C4.99997 23.52 6.9833 21.5133 9.4333 21.5133C13.6566 21.5133 15.3833 18.5267 13.26 14.8633C12.0466 12.7633 12.77 10.0333 14.8933 8.81999L18.93 6.50999C20.7733 5.41333 23.1533 6.06666 24.25 7.90999L24.5066 8.35333C26.6066 12.0167 30.06 12.0167 32.1833 8.35333L32.44 7.90999C33.5366 6.06666 35.9166 5.41333 37.76 6.50999L41.7966 8.81999C43.92 10.0333 44.6433 12.7633 43.43 14.8633C41.3066 18.5267 43.0333 21.5133 47.2566 21.5133C49.6833 21.5133 51.69 23.4967 51.69 25.9467V30.0533C51.69 32.48 49.7066 34.4867 47.2566 34.4867C43.0333 34.4867 41.3066 37.4733 43.43 41.1367C44.6433 43.26 43.92 45.9667 41.7966 47.18L37.76 49.49C35.9166 50.5867 33.5366 49.9333 32.44 48.09L32.1833 47.6467C30.0833 43.9833 26.63 43.9833 24.5066 47.6467L24.25 48.09C23.1533 49.9333 20.7733 50.5867 18.93 49.49L14.8933 47.18C13.8762 46.5944 13.133 45.6291 12.8268 44.4961C12.5206 43.3631 12.6764 42.1549 13.26 41.1367C15.3833 37.4733 13.6566 34.4867 9.4333 34.4867C6.9833 34.4867 4.99997 32.48 4.99997 30.0533V30.0533Z" stroke="white" stroke-width="3" stroke-miterlimit="10" stroke-linecap="round" stroke-linejoin="round"/>
</svg>
