<svg width="57" height="56" viewBox="0 0 57 56" fill="none" xmlns="http://www.w3.org/2000/svg">
<path d="M5.16675 4.66666H9.22675C11.7467 4.66666 13.7301 6.83666 13.5201 9.33333L11.5834 32.5733C11.5078 33.4737 11.62 34.3799 11.913 35.2346C12.2059 36.0893 12.6732 36.8739 13.2852 37.5385C13.8972 38.2032 14.6406 38.7335 15.4683 39.0958C16.296 39.4581 17.1899 39.6446 18.0934 39.6433H42.9434C46.3034 39.6433 49.2434 36.89 49.5001 33.5533L50.7601 16.0533C51.0401 12.18 48.1001 9.03 44.2034 9.03H14.0801M21.5001 18.6667H49.5001M38.4167 51.3333C39.1903 51.3333 39.9322 51.026 40.4791 50.4791C41.0261 49.9321 41.3334 49.1902 41.3334 48.4167C41.3334 47.6431 41.0261 46.9013 40.4791 46.3543C39.9322 45.8073 39.1903 45.5 38.4167 45.5C37.6432 45.5 36.9013 45.8073 36.3544 46.3543C35.8074 46.9013 35.5001 47.6431 35.5001 48.4167C35.5001 49.1902 35.8074 49.9321 36.3544 50.4791C36.9013 51.026 37.6432 51.3333 38.4167 51.3333ZM19.7501 51.3333C20.5236 51.3333 21.2655 51.026 21.8125 50.4791C22.3595 49.9321 22.6667 49.1902 22.6667 48.4167C22.6667 47.6431 22.3595 46.9013 21.8125 46.3543C21.2655 45.8073 20.5236 45.5 19.7501 45.5C18.9765 45.5 18.2347 45.8073 17.6877 46.3543C17.1407 46.9013 16.8334 47.6431 16.8334 48.4167C16.8334 49.1902 17.1407 49.9321 17.6877 50.4791C18.2347 51.026 18.9765 51.3333 19.7501 51.3333V51.3333Z" stroke="#283A8F" stroke-width="3" stroke-miterlimit="10" stroke-linecap="round" stroke-linejoin="round"/>
</svg>
