<svg width="51" height="50" viewBox="0 0 51 50" fill="none" xmlns="http://www.w3.org/2000/svg">
<path d="M2.16663 18V12.1667C2.16663 6.35666 6.85663 1.66666 12.6666 1.66666H18.5M32.5 1.66666H38.3333C44.1433 1.66666 48.8333 6.35666 48.8333 12.1667V18M48.8333 34.3333V37.8333C48.8333 43.6433 44.1433 48.3333 38.3333 48.3333H34.8333M18.5 48.3333H12.6666C6.85663 48.3333 2.16663 43.6433 2.16663 37.8333V32M22 13.3333V18C22 20.3333 20.8333 21.5 18.5 21.5H13.8333C11.5 21.5 10.3333 20.3333 10.3333 18V13.3333C10.3333 11 11.5 9.83332 13.8333 9.83332H18.5C20.8333 9.83332 22 11 22 13.3333ZM40.6666 13.3333V18C40.6666 20.3333 39.5 21.5 37.1666 21.5H32.5C30.1666 21.5 29 20.3333 29 18V13.3333C29 11 30.1666 9.83332 32.5 9.83332H37.1666C39.5 9.83332 40.6666 11 40.6666 13.3333ZM22 32V36.6667C22 39 20.8333 40.1667 18.5 40.1667H13.8333C11.5 40.1667 10.3333 39 10.3333 36.6667V32C10.3333 29.6667 11.5 28.5 13.8333 28.5H18.5C20.8333 28.5 22 29.6667 22 32ZM40.6666 32V36.6667C40.6666 39 39.5 40.1667 37.1666 40.1667H32.5C30.1666 40.1667 29 39 29 36.6667V32C29 29.6667 30.1666 28.5 32.5 28.5H37.1666C39.5 28.5 40.6666 29.6667 40.6666 32Z" stroke="white" stroke-width="3" stroke-linecap="round" stroke-linejoin="round"/>
</svg>
