<svg width="421" height="418" viewBox="0 0 421 418" fill="none" xmlns="http://www.w3.org/2000/svg">
<g clip-path="url(#clip0_40_168)">
<path d="M365.229 332.87C373.42 320.167 371.128 304.165 360.11 297.128C349.091 290.091 333.52 294.684 325.329 307.386C317.138 320.089 319.43 336.091 330.448 343.128C341.466 350.165 357.038 345.572 365.229 332.87Z" fill="#D9DFFC"/>
<path d="M283.629 47.4419C287.5 37.8539 281.593 26.4642 270.435 22.0024C259.277 17.5406 247.094 21.6962 243.223 31.2843C239.352 40.8724 245.259 52.2621 256.417 56.7239C267.575 61.1857 279.758 57.03 283.629 47.4419Z" fill="#D9DFFC"/>
<path d="M302.808 65.2247C306.361 66.6459 310.351 65.0492 311.728 61.655C313.098 58.2608 311.325 54.3567 307.772 52.9355C304.219 51.5143 300.229 53.1111 298.851 56.5052C297.482 59.8994 299.254 63.8035 302.808 65.2247V65.2247Z" fill="#D9DFFC"/>
<path d="M386.446 185.592C387.488 122.574 335.484 69.9147 272.156 69.9147C271.375 69.9147 270.585 69.9147 269.804 69.9398C253.231 70.2742 236.918 65.835 223.083 56.7477C205.41 45.144 184.317 38.2972 161.629 38.0296C98.57 37.2856 46.4144 88.1478 45.9356 150.915C45.7508 175.259 53.252 197.856 66.1712 216.432C78.956 234.824 85.9112 256.593 86.1128 278.965C86.1128 279.358 86.1212 279.742 86.1296 280.135C87.314 342.066 138.764 391.992 201.008 391.683C249.392 391.44 290.67 361.277 307.108 318.834C313.929 301.228 325.63 285.996 340.784 274.659C368.05 254.261 385.842 222.008 386.446 185.592Z" fill="#D9DFFC"/>
<path d="M60.1231 287.888C69.485 285.977 74.3731 271.32 71.0411 255.151C67.709 238.981 57.4185 227.422 48.0566 229.333C38.6948 231.244 33.8066 245.901 37.1387 262.07C40.4708 278.24 50.7612 289.799 60.1231 287.888Z" fill="#D9DFFC"/>
<path d="M75.176 308.91C76.1336 313.55 73.0676 318.098 68.33 319.068C63.5924 320.038 58.9808 317.053 58.0232 312.413C57.0656 307.773 60.1316 303.226 64.8692 302.256C69.6068 301.286 74.2184 304.271 75.176 308.91Z" fill="#D9DFFC"/>
<path d="M247.578 44.3331H263.42C276.541 44.3331 287.184 54.9168 287.184 67.9835V369.955C287.184 383.013 276.549 393.606 263.42 393.606H148.869C135.748 393.606 125.106 383.022 125.106 369.955V67.9835C125.106 54.9252 135.74 44.3331 148.869 44.3331H247.578V44.3331Z" fill="#EDEDF0"/>
<path d="M261.354 65.9604H150.936C147.544 65.9604 144.795 68.6965 144.795 72.0716V89.7028C144.795 93.0779 147.544 95.814 150.936 95.814H261.354C264.745 95.814 267.494 93.0779 267.494 89.7028V72.0716C267.494 68.6965 264.745 65.9604 261.354 65.9604Z" fill="#DBDCE1"/>
<path d="M261.354 123.661H150.936C147.544 123.661 144.795 126.397 144.795 129.772V246.737C144.795 250.112 147.544 252.848 150.936 252.848H261.354C264.745 252.848 267.494 250.112 267.494 246.737V129.772C267.494 126.397 264.745 123.661 261.354 123.661Z" fill="#DBDCE1"/>
<path d="M261.354 264.569H150.936C147.544 264.569 144.795 267.305 144.795 270.68V281.866C144.795 285.241 147.544 287.977 150.936 287.977H261.354C264.745 287.977 267.494 285.241 267.494 281.866V270.68C267.494 267.305 264.745 264.569 261.354 264.569Z" fill="#DBDCE1"/>
<path d="M261.354 302.665H150.936C147.544 302.665 144.795 305.402 144.795 308.777V319.962C144.795 323.337 147.544 326.073 150.936 326.073H261.354C264.745 326.073 267.494 323.337 267.494 319.962V308.777C267.494 305.402 264.745 302.665 261.354 302.665Z" fill="#DBDCE1"/>
<g filter="url(#filter0_d_40_168)">
<path d="M178.201 361.015C179.653 351.829 173.347 343.211 164.117 341.766C154.888 340.321 146.228 346.596 144.776 355.782C143.324 364.968 149.63 373.586 158.859 375.031C168.089 376.476 176.749 370.201 178.201 361.015Z" fill="#DBDCE1"/>
</g>
<path d="M152.809 349.69V366.945H170.146V349.69H152.809ZM167.148 364.203H155.808V360.918L157.908 358.836L159.613 360.517L163.972 356.178L167.156 359.346V364.212L167.148 364.203Z" fill="#9295A5"/>
<g filter="url(#filter1_d_40_168)">
<path d="M219.375 370.295C225.982 363.719 225.982 353.059 219.375 346.483C212.768 339.908 202.056 339.908 195.45 346.483C188.843 353.059 188.843 363.719 195.45 370.295C202.056 376.87 212.768 376.87 219.375 370.295Z" fill="#DBDCE1"/>
</g>
<path d="M199.891 350.669H202.394V349.782H199V353.16H199.891V350.669Z" fill="#9295A5"/>
<path d="M214.935 365.641H212.432V366.527H215.826V363.15H214.935V365.641Z" fill="#9295A5"/>
<path d="M199.891 363.15H199V366.527H202.394V365.641H199.891V363.15Z" fill="#9295A5"/>
<path d="M212.432 349.782V350.669H214.935V353.16H215.826V349.782H212.432Z" fill="#9295A5"/>
<path d="M202.176 356.822H206.107V352.909H202.176V356.822ZM203.066 353.795H205.216V355.935H203.066V353.795Z" fill="#9295A5"/>
<path d="M212.65 352.909H208.719V356.822H212.65V352.909ZM211.76 355.935H209.61V353.795H211.76V355.935Z" fill="#9295A5"/>
<path d="M202.176 363.401H206.107V359.488H202.176V363.401ZM203.066 360.375H205.216V362.515H203.066V360.375Z" fill="#9295A5"/>
<path d="M212.65 359.488H208.719V363.401H212.65V359.488ZM211.76 362.515H209.61V360.375H211.76V362.515Z" fill="#9295A5"/>
<g filter="url(#filter2_d_40_168)">
<path d="M262.768 370.295C269.375 363.72 269.375 353.059 262.768 346.484C256.162 339.909 245.45 339.909 238.843 346.484C232.237 353.059 232.237 363.72 238.843 370.295C245.45 376.871 256.162 376.871 262.768 370.295Z" fill="#DBDCE1"/>
</g>
<path d="M254.121 350.008H249.148L244.604 358.895H249.652L246.645 368.317L257.473 355.108H251.206L254.121 350.008Z" fill="#9295A5"/>
<g filter="url(#filter3_d_40_168)">
<path d="M206.426 73.6182H93.3032C85.6346 73.6182 79.418 79.8052 79.418 87.4372V204.076C79.418 211.708 85.6346 217.895 93.3032 217.895H206.426C214.095 217.895 220.311 211.708 220.311 204.076V87.4372C220.311 79.8052 214.095 73.6182 206.426 73.6182Z" fill="#F7F7F7"/>
</g>
<path d="M133.531 125.408H115.378V143.474H133.531V125.408ZM130.742 140.699H118.176V128.192H130.742V140.699Z" fill="url(#paint0_linear_40_168)"/>
<path d="M127.584 131.327H121.326V137.555H127.584V131.327Z" fill="url(#paint1_linear_40_168)"/>
<path d="M184.342 125.408H166.19V143.474H184.342V125.408ZM181.554 140.699H168.987V128.192H181.554V140.699Z" fill="url(#paint2_linear_40_168)"/>
<path d="M178.395 131.327H172.137V137.555H178.395V131.327Z" fill="url(#paint3_linear_40_168)"/>
<path d="M115.378 194.044H133.531V175.978H115.378V194.044ZM118.167 178.754H130.734V191.26H118.167V178.754Z" fill="url(#paint4_linear_40_168)"/>
<path d="M127.584 181.897H121.326V188.125H127.584V181.897Z" fill="url(#paint5_linear_40_168)"/>
<path d="M155.068 142.73H158.832V145.581H161.133V142.73V137.405H158.832H155.068H152.616H149.121V142.73H145.35V146.166H149.121V142.73H152.616V148.566H155.068V142.73Z" fill="url(#paint6_linear_40_168)"/>
<path d="M158.832 132.556H161.133V127.707V125.417H158.832H153.96V127.707H158.832V132.556Z" fill="url(#paint7_linear_40_168)"/>
<path d="M143.468 125.417H138.588V129.588H143.468V125.417Z" fill="url(#paint8_linear_40_168)"/>
<path d="M181.268 148.507H178.11V152.11H181.268V153.205H174.96V156.984H181.268V160.662H184.342V156.984V153.23V148.566V148.507H181.268Z" fill="url(#paint9_linear_40_168)"/>
<path d="M165.938 174.406V172.141H160.041V177.901H165.938V174.406V174.406ZM163.662 174.883V175.677H162.318V174.365H163.662V174.883Z" fill="url(#paint10_linear_40_168)"/>
<path d="M143.468 174.147H138.588V179.088H143.468V174.147Z" fill="url(#paint11_linear_40_168)"/>
<path d="M135.9 170.954H139.747H143.233V167.133H135.9V170.954Z" fill="url(#paint12_linear_40_168)"/>
<path d="M143.468 149.769V148.566V145.439H139.848V149.728H135.849V149.769V153.23H143.468V149.769Z" fill="url(#paint13_linear_40_168)"/>
<path d="M120.586 156.984H115.387V160.671H120.586V156.984Z" fill="url(#paint14_linear_40_168)"/>
<path d="M121.93 153.222H119.99V148.566H115.387V153.23H119.982V155.187H121.93V153.222Z" fill="url(#paint15_linear_40_168)"/>
<path d="M155.068 190.098H152.616V194.044H155.068H158.832V187.297H155.068V190.098Z" fill="url(#paint16_linear_40_168)"/>
<path d="M121.813 164.149H115.387V170.954H121.813V164.149Z" fill="url(#paint17_linear_40_168)"/>
<path d="M123.56 170.954H133.203V167.141H129.432V164.157H123.56V170.962V170.954ZM124.795 166.657H126.618V168.471H124.795V166.657Z" fill="url(#paint18_linear_40_168)"/>
<path d="M139.251 162.376H135.9V164.149V165.361H139.251V164.149V162.376Z" fill="url(#paint19_linear_40_168)"/>
<path d="M164.98 162.736H161.713V165.72H164.98V162.736Z" fill="url(#paint20_linear_40_168)"/>
<path d="M184.342 164.149H181.268V167.133H184.342V164.149Z" fill="url(#paint21_linear_40_168)"/>
<path d="M143.955 141.501H146.954V137.28H143.955H142.468H138.588V141.501H142.468H143.955Z" fill="url(#paint22_linear_40_168)"/>
<path d="M143.468 181.144H138.588V184.898H143.468V181.144Z" fill="url(#paint23_linear_40_168)"/>
<path d="M158.823 180.593H155.068V184.246H158.823V180.593Z" fill="url(#paint24_linear_40_168)"/>
<path d="M181.268 184.238V188.894H175.606V194.044H181.268H184.342V184.238V179.096H181.268V184.238Z" fill="url(#paint25_linear_40_168)"/>
<path d="M173.204 150.029H168.517V153.222H173.204V150.029Z" fill="url(#paint26_linear_40_168)"/>
<path d="M167.156 174.147H172.431V167.133H167.156H158.832V164.149V160.662H155.068V164.149H152.616V167.133V170.954V174.147H149.121V170.954H145.35V174.147V179.096H149.121V184.238H152.616V179.096H155.068V174.398H158.832V170.954V170.619H167.156V170.954V174.147Z" fill="url(#paint27_linear_40_168)"/>
<path d="M174.909 174.147V174.239H178.975V174.147V170.193H174.909V174.147Z" fill="url(#paint28_linear_40_168)"/>
<path d="M178.992 176.906H181.268H181.68V174.231H181.268H178.992V176.906Z" fill="url(#paint29_linear_40_168)"/>
<path d="M177.463 179.096V178.779H168.13V179.096V183.928H177.463V179.096Z" fill="url(#paint30_linear_40_168)"/>
<path d="M172.952 186.813H168.483V194.044H172.952V186.813Z" fill="url(#paint31_linear_40_168)"/>
<path d="M166.106 181.947H160.167V185.525H166.106V181.947Z" fill="url(#paint32_linear_40_168)"/>
<path d="M166.106 187.331H164.082V189.379H166.106V187.331Z" fill="url(#paint33_linear_40_168)"/>
<path d="M166.106 191.085H160.167V194.036H166.106V191.085Z" fill="url(#paint34_linear_40_168)"/>
<path d="M129.432 153.23H133.203V148.566V148.507H129.432V148.566V153.23Z" fill="url(#paint35_linear_40_168)"/>
<path d="M155.068 156.984H158.823V160.671H174.069V156.984H167.156V148.574H158.832V153.23H152.624V156.984H155.077H155.068ZM163.905 156.24V154.05H166.106V156.24H163.905Z" fill="url(#paint36_linear_40_168)"/>
<path d="M149.121 153.23H152.616V148.566H149.121H145.35V153.23V156.984H149.121V153.23Z" fill="url(#paint37_linear_40_168)"/>
<path d="M152.616 129.689H149.121V125.417H145.35V135.842H152.616V129.689Z" fill="url(#paint38_linear_40_168)"/>
<path d="M152.616 156.984H149.121V160.662H145.35V156.984H143.468H133.203H129.432H121.813V160.662H129.432V164.149H133.203V160.662H143.468V164.149H145.35V167.133H149.121V164.149H152.616V160.662V156.984Z" fill="url(#paint39_linear_40_168)"/>
<path d="M142.981 189.596H138.588V194.044H142.981H143.468H150.381V187.406H142.981V189.596Z" fill="url(#paint40_linear_40_168)"/>
<path d="M156.984 129.789H154.262V132.498H156.984V129.789Z" fill="url(#paint41_linear_40_168)"/>
<path d="M178.412 160.662V162.418H174.909V165.904H178.42V162.418H180.613V160.662V160.228H178.412V160.662Z" fill="url(#paint42_linear_40_168)"/>
<path d="M127.298 153.297H124.954V155.63H127.298V153.297Z" fill="url(#paint43_linear_40_168)"/>
<path d="M165.342 144.427H162.998V146.76H165.342V144.427Z" fill="url(#paint44_linear_40_168)"/>
<path d="M196.648 91.8931H103.072C100.307 91.8931 98.066 94.1239 98.066 96.8757V106.297C98.066 109.049 100.307 111.28 103.072 111.28H196.648C199.413 111.28 201.655 109.049 201.655 106.297V96.8757C201.655 94.1239 199.413 91.8931 196.648 91.8931Z" fill="url(#paint45_linear_40_168)"/>
<path d="M111.864 100.036C111.802 99.5115 111.55 99.1045 111.109 98.8148C110.667 98.525 110.126 98.3802 109.484 98.3802C109.015 98.3802 108.604 98.456 108.253 98.6078C107.904 98.7596 107.632 98.9683 107.435 99.2339C107.242 99.4995 107.145 99.8013 107.145 100.139C107.145 100.422 107.213 100.665 107.347 100.869C107.485 101.069 107.661 101.236 107.875 101.371C108.089 101.502 108.313 101.61 108.547 101.697C108.782 101.779 108.998 101.847 109.194 101.898L110.27 102.188C110.546 102.261 110.853 102.361 111.191 102.488C111.533 102.616 111.859 102.79 112.169 103.011C112.483 103.228 112.742 103.508 112.945 103.849C113.149 104.191 113.251 104.61 113.251 105.106C113.251 105.679 113.101 106.196 112.8 106.659C112.504 107.121 112.069 107.488 111.497 107.761C110.927 108.033 110.236 108.169 109.422 108.169C108.663 108.169 108.006 108.047 107.451 107.802C106.899 107.557 106.464 107.216 106.147 106.778C105.833 106.34 105.655 105.831 105.614 105.251H106.938C106.973 105.651 107.107 105.983 107.342 106.245C107.58 106.503 107.88 106.697 108.242 106.824C108.608 106.948 109.001 107.01 109.422 107.01C109.912 107.01 110.351 106.931 110.741 106.772C111.131 106.61 111.44 106.386 111.667 106.1C111.895 105.81 112.009 105.472 112.009 105.086C112.009 104.734 111.911 104.448 111.714 104.227C111.517 104.006 111.259 103.827 110.938 103.689C110.617 103.551 110.27 103.43 109.898 103.327L108.594 102.954C107.766 102.716 107.111 102.376 106.628 101.935C106.145 101.493 105.904 100.915 105.904 100.201C105.904 99.6081 106.064 99.0907 106.385 98.6492C106.709 98.2042 107.144 97.8593 107.689 97.6144C108.237 97.3661 108.849 97.2419 109.525 97.2419C110.208 97.2419 110.815 97.3643 111.347 97.6092C111.878 97.8507 112.299 98.1818 112.609 98.6026C112.923 99.0235 113.089 99.5012 113.106 100.036H111.864ZM118.423 108.149C117.678 108.149 117.037 107.973 116.499 107.621C115.961 107.269 115.547 106.784 115.257 106.167C114.967 105.55 114.822 104.844 114.822 104.051C114.822 103.244 114.971 102.531 115.267 101.914C115.567 101.293 115.985 100.808 116.519 100.46C117.057 100.108 117.685 99.9324 118.403 99.9324C118.961 99.9324 119.465 100.036 119.913 100.243C120.362 100.45 120.729 100.74 121.016 101.112C121.302 101.485 121.479 101.919 121.548 102.416H120.327C120.234 102.054 120.027 101.733 119.706 101.454C119.389 101.171 118.961 101.029 118.423 101.029C117.947 101.029 117.53 101.153 117.171 101.402C116.816 101.647 116.538 101.993 116.338 102.442C116.142 102.887 116.043 103.409 116.043 104.009C116.043 104.623 116.14 105.158 116.333 105.613C116.53 106.069 116.806 106.422 117.161 106.674C117.52 106.926 117.94 107.052 118.423 107.052C118.741 107.052 119.029 106.997 119.287 106.886C119.546 106.776 119.765 106.617 119.944 106.41C120.124 106.203 120.251 105.955 120.327 105.665H121.548C121.479 106.134 121.309 106.557 121.036 106.933C120.767 107.305 120.41 107.602 119.965 107.823C119.524 108.04 119.01 108.149 118.423 108.149ZM125.672 108.169C125.169 108.169 124.711 108.075 124.301 107.885C123.891 107.692 123.565 107.414 123.323 107.052C123.082 106.686 122.961 106.245 122.961 105.727C122.961 105.272 123.051 104.903 123.23 104.62C123.409 104.334 123.649 104.11 123.949 103.947C124.249 103.785 124.58 103.665 124.943 103.585C125.308 103.502 125.676 103.437 126.045 103.389C126.528 103.327 126.919 103.28 127.219 103.249C127.523 103.214 127.743 103.157 127.881 103.078C128.023 102.999 128.094 102.861 128.094 102.664V102.623C128.094 102.112 127.954 101.716 127.674 101.433C127.399 101.15 126.979 101.009 126.417 101.009C125.834 101.009 125.377 101.136 125.046 101.391C124.715 101.647 124.482 101.919 124.348 102.209L123.189 101.795C123.396 101.312 123.672 100.936 124.016 100.667C124.365 100.395 124.744 100.205 125.155 100.098C125.569 99.9876 125.976 99.9324 126.376 99.9324C126.631 99.9324 126.924 99.9634 127.255 100.025C127.59 100.084 127.912 100.207 128.223 100.393C128.537 100.579 128.797 100.86 129.004 101.236C129.211 101.612 129.315 102.116 129.315 102.747V107.983H128.094V106.907H128.031C127.949 107.079 127.811 107.264 127.618 107.461C127.424 107.657 127.167 107.824 126.847 107.962C126.526 108.1 126.134 108.169 125.672 108.169ZM125.858 107.072C126.341 107.072 126.748 106.978 127.079 106.788C127.414 106.598 127.666 106.353 127.835 106.053C128.007 105.753 128.094 105.438 128.094 105.106V103.989C128.042 104.051 127.928 104.108 127.752 104.16C127.58 104.208 127.38 104.251 127.152 104.289C126.928 104.323 126.709 104.354 126.495 104.382C126.284 104.406 126.114 104.427 125.983 104.444C125.665 104.485 125.369 104.553 125.093 104.646C124.82 104.736 124.599 104.872 124.43 105.055C124.265 105.234 124.182 105.479 124.182 105.789C124.182 106.214 124.339 106.534 124.653 106.752C124.97 106.966 125.372 107.072 125.858 107.072ZM132.764 103.202V107.983H131.543V100.036H132.723V101.278H132.826C133.013 100.874 133.296 100.55 133.675 100.305C134.054 100.057 134.544 99.9324 135.144 99.9324C135.683 99.9324 136.153 100.043 136.557 100.264C136.961 100.481 137.274 100.812 137.499 101.257C137.723 101.698 137.835 102.257 137.835 102.933V107.983H136.614V103.016C136.614 102.392 136.452 101.905 136.127 101.557C135.803 101.205 135.358 101.029 134.793 101.029C134.403 101.029 134.054 101.114 133.747 101.283C133.444 101.452 133.204 101.698 133.028 102.023C132.852 102.347 132.764 102.74 132.764 103.202ZM143.75 98.525V97.3868H151.697V98.525H148.365V107.983H147.082V98.525H143.75ZM154.733 103.202V107.983H153.512V97.3868H154.733V101.278H154.837C155.023 100.867 155.302 100.541 155.675 100.3C156.051 100.055 156.551 99.9324 157.175 99.9324C157.717 99.9324 158.191 100.041 158.598 100.258C159.005 100.472 159.321 100.802 159.545 101.247C159.773 101.688 159.887 102.25 159.887 102.933V107.983H158.665V103.016C158.665 102.385 158.502 101.897 158.174 101.552C157.85 101.203 157.4 101.029 156.824 101.029C156.423 101.029 156.065 101.114 155.747 101.283C155.433 101.452 155.185 101.698 155.002 102.023C154.823 102.347 154.733 102.74 154.733 103.202ZM162.12 107.983V100.036H163.341V107.983H162.12ZM162.741 98.7113C162.503 98.7113 162.298 98.6302 162.126 98.4681C161.957 98.306 161.872 98.1111 161.872 97.8835C161.872 97.6558 161.957 97.4609 162.126 97.2988C162.298 97.1367 162.503 97.0556 162.741 97.0556C162.979 97.0556 163.183 97.1367 163.352 97.2988C163.524 97.4609 163.611 97.6558 163.611 97.8835C163.611 98.1111 163.524 98.306 163.352 98.4681C163.183 98.6302 162.979 98.7113 162.741 98.7113ZM171.207 101.816L170.11 102.126C170.041 101.943 169.94 101.766 169.805 101.593C169.674 101.417 169.495 101.272 169.267 101.159C169.039 101.045 168.748 100.988 168.393 100.988C167.906 100.988 167.501 101.1 167.177 101.324C166.856 101.545 166.696 101.826 166.696 102.168C166.696 102.471 166.806 102.711 167.027 102.887C167.247 103.063 167.592 103.209 168.061 103.327L169.241 103.616C169.952 103.789 170.481 104.053 170.83 104.408C171.178 104.76 171.352 105.213 171.352 105.769C171.352 106.224 171.221 106.631 170.959 106.99C170.7 107.348 170.338 107.631 169.872 107.838C169.407 108.045 168.865 108.149 168.248 108.149C167.437 108.149 166.766 107.973 166.235 107.621C165.704 107.269 165.368 106.755 165.226 106.079L166.385 105.789C166.495 106.217 166.704 106.538 167.011 106.752C167.322 106.966 167.727 107.072 168.227 107.072C168.796 107.072 169.248 106.952 169.583 106.71C169.921 106.465 170.09 106.172 170.09 105.831C170.09 105.555 169.993 105.324 169.8 105.137C169.607 104.948 169.31 104.806 168.91 104.713L167.585 104.403C166.858 104.23 166.323 103.963 165.982 103.601C165.643 103.235 165.474 102.778 165.474 102.23C165.474 101.781 165.6 101.385 165.852 101.04C166.107 100.695 166.454 100.424 166.892 100.227C167.334 100.031 167.834 99.9324 168.393 99.9324C169.179 99.9324 169.796 100.105 170.245 100.45C170.697 100.795 171.018 101.25 171.207 101.816ZM114.596 118.698H113.313C113.237 118.329 113.104 118.005 112.914 117.725C112.728 117.446 112.5 117.211 112.231 117.022C111.966 116.829 111.671 116.684 111.347 116.587C111.022 116.491 110.684 116.442 110.332 116.442C109.691 116.442 109.11 116.604 108.589 116.929C108.071 117.253 107.659 117.731 107.352 118.362C107.049 118.993 106.897 119.767 106.897 120.685C106.897 121.602 107.049 122.377 107.352 123.008C107.659 123.639 108.071 124.117 108.589 124.441C109.11 124.766 109.691 124.928 110.332 124.928C110.684 124.928 111.022 124.879 111.347 124.783C111.671 124.686 111.966 124.543 112.231 124.353C112.5 124.16 112.728 123.924 112.914 123.644C113.104 123.362 113.237 123.037 113.313 122.672H114.596C114.499 123.213 114.323 123.698 114.068 124.126C113.813 124.553 113.496 124.917 113.116 125.217C112.737 125.514 112.311 125.74 111.838 125.895C111.369 126.05 110.867 126.128 110.332 126.128C109.429 126.128 108.625 125.907 107.921 125.466C107.218 125.024 106.664 124.396 106.261 123.582C105.857 122.768 105.655 121.803 105.655 120.685C105.655 119.567 105.857 118.602 106.261 117.787C106.664 116.973 107.218 116.346 107.921 115.904C108.625 115.463 109.429 115.242 110.332 115.242C110.867 115.242 111.369 115.319 111.838 115.475C112.311 115.63 112.737 115.858 113.116 116.158C113.496 116.454 113.813 116.817 114.068 117.244C114.323 117.668 114.499 118.153 114.596 118.698ZM119.732 126.149C119.015 126.149 118.385 125.978 117.844 125.636C117.306 125.295 116.885 124.817 116.581 124.203C116.281 123.589 116.131 122.872 116.131 122.051C116.131 121.223 116.281 120.5 116.581 119.883C116.885 119.266 117.306 118.786 117.844 118.445C118.385 118.103 119.015 117.932 119.732 117.932C120.45 117.932 121.078 118.103 121.616 118.445C122.157 118.786 122.578 119.266 122.878 119.883C123.182 120.5 123.333 121.223 123.333 122.051C123.333 122.872 123.182 123.589 122.878 124.203C122.578 124.817 122.157 125.295 121.616 125.636C121.078 125.978 120.45 126.149 119.732 126.149ZM119.732 125.052C120.277 125.052 120.726 124.912 121.078 124.633C121.429 124.353 121.69 123.986 121.859 123.531C122.028 123.075 122.112 122.582 122.112 122.051C122.112 121.52 122.028 121.025 121.859 120.566C121.69 120.107 121.429 119.736 121.078 119.454C120.726 119.171 120.277 119.029 119.732 119.029C119.187 119.029 118.739 119.171 118.387 119.454C118.035 119.736 117.775 120.107 117.606 120.566C117.437 121.025 117.352 121.52 117.352 122.051C117.352 122.582 117.437 123.075 117.606 123.531C117.775 123.986 118.035 124.353 118.387 124.633C118.739 124.912 119.187 125.052 119.732 125.052ZM128.198 126.149C127.536 126.149 126.951 125.981 126.444 125.647C125.937 125.309 125.541 124.833 125.254 124.219C124.968 123.601 124.825 122.872 124.825 122.03C124.825 121.195 124.968 120.471 125.254 119.857C125.541 119.243 125.939 118.769 126.45 118.434C126.96 118.1 127.55 117.932 128.219 117.932C128.736 117.932 129.145 118.019 129.445 118.191C129.749 118.36 129.98 118.553 130.139 118.771C130.301 118.984 130.427 119.16 130.516 119.298H130.62V115.387H131.841V125.983H130.661V124.762H130.516C130.427 124.907 130.299 125.09 130.133 125.31C129.968 125.528 129.732 125.723 129.425 125.895C129.118 126.064 128.709 126.149 128.198 126.149ZM128.364 125.052C128.854 125.052 129.268 124.924 129.606 124.669C129.944 124.41 130.201 124.053 130.377 123.598C130.552 123.139 130.64 122.61 130.64 122.009C130.64 121.416 130.554 120.897 130.382 120.452C130.209 120.004 129.954 119.655 129.616 119.407C129.278 119.155 128.861 119.029 128.364 119.029C127.846 119.029 127.415 119.162 127.07 119.428C126.729 119.69 126.472 120.047 126.299 120.499C126.13 120.947 126.046 121.451 126.046 122.009C126.046 122.575 126.132 123.089 126.305 123.551C126.481 124.01 126.739 124.376 127.081 124.648C127.426 124.917 127.853 125.052 128.364 125.052ZM137.579 126.149C136.813 126.149 136.152 125.98 135.597 125.642C135.045 125.3 134.619 124.824 134.319 124.214C134.023 123.6 133.874 122.886 133.874 122.072C133.874 121.258 134.023 120.54 134.319 119.919C134.619 119.295 135.037 118.808 135.571 118.46C136.109 118.108 136.737 117.932 137.455 117.932C137.869 117.932 138.277 118.001 138.681 118.139C139.084 118.277 139.452 118.502 139.783 118.812C140.114 119.119 140.378 119.526 140.575 120.033C140.771 120.54 140.869 121.164 140.869 121.906V122.423H134.743V121.368H139.628C139.628 120.919 139.538 120.519 139.359 120.168C139.183 119.816 138.931 119.538 138.603 119.335C138.279 119.131 137.896 119.029 137.455 119.029C136.968 119.029 136.547 119.15 136.192 119.391C135.84 119.629 135.57 119.94 135.38 120.323C135.19 120.706 135.095 121.116 135.095 121.554V122.258C135.095 122.858 135.199 123.367 135.406 123.784C135.616 124.198 135.908 124.514 136.28 124.731C136.653 124.945 137.086 125.052 137.579 125.052C137.9 125.052 138.189 125.007 138.448 124.917C138.71 124.824 138.936 124.686 139.126 124.503C139.316 124.317 139.462 124.086 139.566 123.81L140.745 124.141C140.621 124.541 140.412 124.893 140.119 125.197C139.826 125.497 139.464 125.731 139.033 125.9C138.602 126.066 138.117 126.149 137.579 126.149Z" fill="white"/>
<path d="M330.133 313.667C326.999 309.83 325.412 304.973 325.689 300.032C326.529 284.733 325.739 250.39 315.903 229.632C302.673 201.718 296.558 160.111 292.375 157.845C287.696 155.312 276.322 156.75 274.121 170.544C271.921 184.33 282.261 230.736 282.261 230.736C282.261 230.736 247.737 273.196 247.737 297.491C247.737 321.785 284.025 345.862 284.025 345.862L366.832 448.924L414.393 418.334L330.149 313.667H330.133Z" fill="url(#paint46_linear_40_168)"/>
<g style="mix-blend-mode:multiply" opacity="0.25">
<path d="M314.66 257.73C314.147 275.997 308.545 319.645 313.131 333.347C316.079 342.158 358.919 396.766 389.109 434.595L414.385 418.334L330.141 313.667C327.008 309.83 325.42 304.973 325.697 300.032C326.537 284.733 325.748 250.39 315.911 229.632C302.681 201.718 296.566 160.111 292.383 157.845C292.383 157.845 292.744 162.819 294.785 181.596C296.827 200.372 315.181 239.455 314.677 257.722L314.66 257.73Z" fill="#ED978A"/>
</g>
<path d="M366.816 448.924L346.857 461.238L267.595 363.468C265.335 360.759 262.336 358.753 258.976 357.674C247.586 354.054 220.168 343.763 211.878 326.483H261.799C271.996 337.878 284.017 345.853 284.017 345.853L366.824 448.915L366.816 448.924Z" fill="url(#paint47_linear_40_168)"/>
<path d="M196.808 192.104C196.808 192.104 163.401 176.521 157.496 190.081C149.415 208.632 189.66 216.29 189.66 216.29L196.808 192.104V192.104Z" fill="url(#paint48_linear_40_168)"/>
<path style="mix-blend-mode:multiply" d="M179.538 194.746V204.904H174.229C171.188 204.904 168.256 205.873 165.862 207.654C163.653 206.308 161.654 204.795 160.075 203.106C163.872 197.94 170.012 194.587 176.942 194.587C177.824 194.587 178.689 194.638 179.538 194.746V194.746Z" fill="url(#paint49_linear_40_168)"/>
<path d="M275.76 310.474V146.827C275.76 137.445 268.118 129.839 258.691 129.839H196.606C187.179 129.839 179.538 137.445 179.538 146.827V310.474C179.538 319.856 187.179 327.461 196.606 327.461H258.691C268.118 327.461 275.76 319.856 275.76 310.474Z" fill="url(#paint50_linear_40_168)"/>
<path opacity="0.21" d="M196.606 134.011H205.191C206.065 134.011 206.896 134.42 207.417 135.123L209.542 137.973C210.508 139.269 212.037 140.03 213.658 140.03H241.63C243.252 140.03 244.78 139.269 245.746 137.973L247.872 135.123C248.392 134.42 249.224 134.011 250.098 134.011H258.682C265.797 134.011 271.56 139.746 271.56 146.827V310.465C271.56 317.546 265.797 323.281 258.682 323.281H196.606C189.492 323.281 183.729 317.546 183.729 310.465V146.827C183.729 139.746 189.492 134.011 196.606 134.011V134.011Z" fill="white"/>
<path d="M261.286 189.045H194.733V255.281H261.286V189.045Z" fill="#F7F7F7"/>
<path d="M216.548 197.672H203.62V210.538H216.548V197.672ZM214.557 208.565H205.603V199.654H214.557V208.565Z" fill="url(#paint51_linear_40_168)"/>
<path d="M212.314 201.886H207.854V206.325H212.314V201.886Z" fill="url(#paint52_linear_40_168)"/>
<path d="M252.744 197.672H239.808V210.538H252.744V197.672ZM250.753 208.565H241.798V199.654H250.753V208.565Z" fill="url(#paint53_linear_40_168)"/>
<path d="M248.502 201.886H244.041V206.325H248.502V201.886Z" fill="url(#paint54_linear_40_168)"/>
<path d="M203.612 246.561H216.54V233.687H203.612V246.561ZM205.603 235.668H214.557V244.58H205.603V235.668Z" fill="url(#paint55_linear_40_168)"/>
<path d="M212.314 237.909H207.854V242.348H212.314V237.909Z" fill="url(#paint56_linear_40_168)"/>
<path d="M231.886 210.012H234.566V212.035H236.204V210.012V206.216H234.566H231.886H230.139H227.653V210.012H224.965V212.461H227.653V210.012H230.139V214.166H231.886V210.012Z" fill="url(#paint57_linear_40_168)"/>
<path d="M234.566 202.763H236.204V199.311V197.672H234.566H231.097V199.311H234.566V202.763Z" fill="url(#paint58_linear_40_168)"/>
<path d="M223.621 197.672H220.143V200.64H223.621V197.672Z" fill="url(#paint59_linear_40_168)"/>
<path d="M250.551 214.125H248.3V216.691H250.551V217.477H246.057V220.161H250.551V222.786H252.744V220.161V217.485V214.166V214.125H250.551Z" fill="url(#paint60_linear_40_168)"/>
<path d="M239.631 232.575V230.962H235.431V235.066H239.631V232.575ZM238.01 232.918V233.486H237.052V232.55H238.01V232.918Z" fill="url(#paint61_linear_40_168)"/>
<path d="M223.621 232.391H220.143V235.911H223.621V232.391Z" fill="url(#paint62_linear_40_168)"/>
<path d="M218.228 230.117H220.975H223.461V227.392H218.228V230.117Z" fill="url(#paint63_linear_40_168)"/>
<path d="M223.621 215.028V214.166V211.943H221.042V214.994H218.194V215.028V217.485H223.621V215.028Z" fill="url(#paint64_linear_40_168)"/>
<path d="M207.325 220.161H203.62V222.786H207.325V220.161Z" fill="url(#paint65_linear_40_168)"/>
<path d="M208.282 217.485H206.896V214.166H203.62V217.485H206.888V218.89H208.282V217.485Z" fill="url(#paint66_linear_40_168)"/>
<path d="M231.886 243.753H230.139V246.561H231.886H234.566V241.763H231.886V243.753Z" fill="url(#paint67_linear_40_168)"/>
<path d="M208.198 225.269H203.62V230.117H208.198V225.269Z" fill="url(#paint68_linear_40_168)"/>
<path d="M209.442 230.117H216.313V227.4H213.625V225.277H209.442V230.126V230.117ZM210.315 227.058H211.609V228.345H210.315V227.058Z" fill="url(#paint69_linear_40_168)"/>
<path d="M220.622 224.006H218.228V225.269V226.13H220.622V225.269V224.006Z" fill="url(#paint70_linear_40_168)"/>
<path d="M238.942 224.265H236.616V226.389H238.942V224.265Z" fill="url(#paint71_linear_40_168)"/>
<path d="M252.744 225.269H250.551V227.392H252.744V225.269Z" fill="url(#paint72_linear_40_168)"/>
<path d="M223.974 209.134H226.107V206.124H223.974H222.907H220.143V209.134H222.907H223.974Z" fill="url(#paint73_linear_40_168)"/>
<path d="M223.621 237.374H220.143V240.049H223.621V237.374Z" fill="url(#paint74_linear_40_168)"/>
<path d="M234.566 236.981H231.886V239.581H234.566V236.981Z" fill="url(#paint75_linear_40_168)"/>
<path d="M250.551 239.581V242.9H246.519V246.561H250.551H252.744V239.581V235.911H250.551V239.581Z" fill="url(#paint76_linear_40_168)"/>
<path d="M244.814 215.211H241.471V217.485H244.814V215.211Z" fill="url(#paint77_linear_40_168)"/>
<path d="M240.496 232.391H244.251V227.392H240.496H234.566V225.269V222.786H231.886V225.269H230.139V227.392V230.117V232.391H227.653V230.117H224.965V232.391V235.911H227.653V239.581H230.139V235.911H231.886V232.575H234.566V230.117V229.875H240.496V230.117V232.391Z" fill="url(#paint78_linear_40_168)"/>
<path d="M246.024 232.391V232.458H248.922V232.391V229.574H246.024V232.391Z" fill="url(#paint79_linear_40_168)"/>
<path d="M248.93 234.356H250.551H250.845V232.45H250.551H248.93V234.356Z" fill="url(#paint80_linear_40_168)"/>
<path d="M247.838 235.911V235.693H241.194V235.911V239.364H247.838V235.911Z" fill="url(#paint81_linear_40_168)"/>
<path d="M244.629 241.412H241.446V246.561H244.629V241.412Z" fill="url(#paint82_linear_40_168)"/>
<path d="M239.749 237.942H235.515V240.492H239.749V237.942Z" fill="url(#paint83_linear_40_168)"/>
<path d="M239.749 241.788H238.304V243.251H239.749V241.788Z" fill="url(#paint84_linear_40_168)"/>
<path d="M239.749 244.463H235.515V246.57H239.749V244.463Z" fill="url(#paint85_linear_40_168)"/>
<path d="M213.616 217.485H216.304V214.166V214.125H213.616V214.166V217.485Z" fill="url(#paint86_linear_40_168)"/>
<path d="M231.886 220.161H234.566V222.786H245.427V220.161H240.496V214.166H234.566V217.485H230.139V220.161H231.886ZM238.178 219.626V218.062H239.749V219.626H238.178Z" fill="url(#paint87_linear_40_168)"/>
<path d="M227.653 217.485H230.139V214.166H227.653H224.965V217.485V220.161H227.653V217.485Z" fill="url(#paint88_linear_40_168)"/>
<path d="M230.139 200.724H227.653V197.672H224.965V205.104H230.139V200.724Z" fill="url(#paint89_linear_40_168)"/>
<path d="M230.139 220.161H227.653V222.786H224.965V220.161H223.621H216.304H213.616H208.19V222.786H213.616V225.269H216.304V222.786H223.621V225.269H224.965V227.392H227.653V225.269H230.139V222.786V220.161Z" fill="url(#paint90_linear_40_168)"/>
<path d="M223.276 243.393H220.143V246.561H223.276H223.621H228.552V241.838H223.276V243.393Z" fill="url(#paint91_linear_40_168)"/>
<path d="M233.256 200.79H231.315V202.722H233.256V200.79Z" fill="url(#paint92_linear_40_168)"/>
<path d="M248.518 222.786V224.031H246.024V226.523H248.518V224.04H250.081V222.786V222.476H248.518V222.786Z" fill="url(#paint93_linear_40_168)"/>
<path d="M212.096 217.536H210.433V219.191H212.096V217.536Z" fill="url(#paint94_linear_40_168)"/>
<path d="M239.203 211.224H237.531V212.887H239.203V211.224Z" fill="url(#paint95_linear_40_168)"/>
<path style="mix-blend-mode:screen" opacity="0.74" d="M252.735 217.001H203.612V246.561H252.735V217.001Z" fill="url(#paint96_linear_40_168)"/>
<path d="M252.735 217.001H203.612V218.99H252.735V217.001Z" fill="#E43769"/>
<path d="M199.345 183.761H189.492V193.576H190.642V184.906H199.345V183.761Z" fill="#F7F7F7"/>
<path d="M266.578 193.567V183.761H256.717V184.915H265.427V193.567H266.578Z" fill="#F7F7F7"/>
<path d="M256.725 260.623H266.578V250.808H265.428V259.469H256.725V260.623Z" fill="#F7F7F7"/>
<path d="M189.492 250.817V260.623H199.353V259.469H190.642V250.817H189.492Z" fill="#F7F7F7"/>
<path d="M196.405 286.756H259.522C260.497 286.756 261.295 287.542 261.295 288.52V294.832C261.295 295.802 260.505 296.596 259.522 296.596H196.405C195.43 296.596 194.632 295.81 194.632 294.832V288.52C194.632 287.551 195.422 286.756 196.405 286.756V286.756Z" fill="url(#paint97_linear_40_168)"/>
<path d="M214.885 290.193C214.856 289.947 214.738 289.756 214.531 289.621C214.324 289.485 214.07 289.417 213.769 289.417C213.549 289.417 213.357 289.452 213.192 289.524C213.028 289.595 212.901 289.692 212.809 289.817C212.718 289.942 212.673 290.083 212.673 290.241C212.673 290.374 212.704 290.488 212.767 290.583C212.832 290.677 212.914 290.756 213.015 290.819C213.115 290.88 213.22 290.931 213.33 290.972C213.44 291.01 213.541 291.042 213.633 291.066L214.138 291.202C214.267 291.236 214.411 291.283 214.569 291.343C214.729 291.402 214.882 291.484 215.028 291.588C215.175 291.689 215.296 291.82 215.392 291.98C215.487 292.141 215.535 292.337 215.535 292.57C215.535 292.838 215.464 293.081 215.324 293.297C215.185 293.514 214.981 293.686 214.712 293.814C214.446 293.942 214.121 294.006 213.74 294.006C213.384 294.006 213.076 293.948 212.816 293.834C212.557 293.719 212.353 293.559 212.205 293.353C212.057 293.148 211.974 292.909 211.955 292.638H212.576C212.592 292.825 212.655 292.981 212.765 293.103C212.876 293.225 213.017 293.315 213.187 293.375C213.358 293.433 213.543 293.462 213.74 293.462C213.97 293.462 214.176 293.425 214.358 293.351C214.541 293.275 214.686 293.17 214.793 293.036C214.899 292.9 214.953 292.741 214.953 292.56C214.953 292.395 214.907 292.261 214.814 292.158C214.722 292.054 214.601 291.97 214.451 291.905C214.3 291.841 214.138 291.784 213.963 291.736L213.352 291.561C212.964 291.449 212.657 291.29 212.43 291.083C212.204 290.876 212.091 290.605 212.091 290.271C212.091 289.992 212.166 289.75 212.316 289.543C212.468 289.334 212.672 289.173 212.927 289.058C213.184 288.941 213.471 288.883 213.788 288.883C214.109 288.883 214.393 288.941 214.642 289.055C214.891 289.169 215.088 289.324 215.234 289.521C215.381 289.718 215.459 289.942 215.467 290.193H214.885ZM220.521 290.503H219.919C219.884 290.33 219.821 290.178 219.733 290.047C219.645 289.916 219.538 289.806 219.412 289.718C219.288 289.627 219.15 289.559 218.998 289.514C218.846 289.469 218.687 289.446 218.522 289.446C218.221 289.446 217.949 289.522 217.705 289.674C217.462 289.826 217.269 290.05 217.125 290.346C216.983 290.642 216.912 291.005 216.912 291.435C216.912 291.865 216.983 292.228 217.125 292.524C217.269 292.82 217.462 293.044 217.705 293.196C217.949 293.348 218.221 293.424 218.522 293.424C218.687 293.424 218.846 293.401 218.998 293.356C219.15 293.31 219.288 293.243 219.412 293.154C219.538 293.064 219.645 292.953 219.733 292.822C219.821 292.69 219.884 292.538 219.919 292.366H220.521C220.476 292.62 220.393 292.847 220.273 293.048C220.154 293.248 220.005 293.419 219.827 293.559C219.649 293.698 219.45 293.804 219.228 293.877C219.008 293.95 218.773 293.986 218.522 293.986C218.099 293.986 217.722 293.883 217.392 293.676C217.062 293.469 216.803 293.175 216.613 292.793C216.424 292.411 216.33 291.959 216.33 291.435C216.33 290.911 216.424 290.458 216.613 290.077C216.803 289.695 217.062 289.401 217.392 289.194C217.722 288.987 218.099 288.883 218.522 288.883C218.773 288.883 219.008 288.92 219.228 288.992C219.45 289.065 219.649 289.172 219.827 289.313C220.005 289.452 220.154 289.621 220.273 289.822C220.393 290.021 220.476 290.248 220.521 290.503ZM221.697 293.918H221.066L222.89 288.951H223.511L225.335 293.918H224.704L223.22 289.737H223.181L221.697 293.918ZM221.929 291.978H224.471V292.512H221.929V291.978ZM230.047 288.951V293.918H229.465L226.758 290.018H226.71V293.918H226.108V288.951H226.69L229.407 292.861H229.455V288.951H230.047ZM216.107 296.951V301.918H215.525L212.818 298.018H212.77V301.918H212.168V296.951H212.75L215.467 300.861H215.515V296.951H216.107ZM221.502 299.435C221.502 299.959 221.407 300.411 221.218 300.793C221.029 301.175 220.769 301.469 220.44 301.676C220.11 301.883 219.733 301.986 219.309 301.986C218.886 301.986 218.509 301.883 218.179 301.676C217.849 301.469 217.59 301.175 217.4 300.793C217.211 300.411 217.117 299.959 217.117 299.435C217.117 298.911 217.211 298.458 217.4 298.077C217.59 297.695 217.849 297.401 218.179 297.194C218.509 296.987 218.886 296.883 219.309 296.883C219.733 296.883 220.11 296.987 220.44 297.194C220.769 297.401 221.029 297.695 221.218 298.077C221.407 298.458 221.502 298.911 221.502 299.435ZM220.92 299.435C220.92 299.005 220.848 298.642 220.704 298.346C220.562 298.05 220.368 297.826 220.124 297.674C219.882 297.522 219.61 297.446 219.309 297.446C219.009 297.446 218.736 297.522 218.492 297.674C218.249 297.826 218.056 298.05 217.912 298.346C217.77 298.642 217.699 299.005 217.699 299.435C217.699 299.865 217.77 300.228 217.912 300.524C218.056 300.82 218.249 301.044 218.492 301.196C218.736 301.348 219.009 301.424 219.309 301.424C219.61 301.424 219.882 301.348 220.124 301.196C220.368 301.044 220.562 300.82 220.704 300.524C220.848 300.228 220.92 299.865 220.92 299.435ZM223.416 301.918L222.057 296.951H222.668L223.707 300.997H223.755L224.813 296.951H225.492L226.549 300.997H226.598L227.636 296.951H228.247L226.889 301.918H226.268L225.172 297.96H225.133L224.036 301.918H223.416Z" fill="white"/>
<path d="M196.405 300.968H259.522C260.497 300.968 261.295 301.754 261.295 302.732V309.044C261.295 310.014 260.505 310.808 259.522 310.808H196.405C195.43 310.808 194.632 310.022 194.632 309.044V302.732C194.632 301.763 195.422 300.968 196.405 300.968V300.968Z" fill="url(#paint98_linear_40_168)"/>
<path d="M221.121 304.883H220.52C220.484 304.71 220.422 304.558 220.333 304.427C220.246 304.296 220.139 304.186 220.013 304.097C219.888 304.006 219.75 303.938 219.598 303.893C219.446 303.848 219.288 303.825 219.123 303.825C218.822 303.825 218.55 303.901 218.305 304.053C218.063 304.205 217.87 304.429 217.726 304.725C217.583 305.021 217.512 305.384 217.512 305.814C217.512 306.244 217.583 306.607 217.726 306.903C217.87 307.199 218.063 307.423 218.305 307.575C218.55 307.727 218.822 307.803 219.123 307.803C219.288 307.803 219.446 307.78 219.598 307.735C219.75 307.69 219.888 307.623 220.013 307.534C220.139 307.443 220.246 307.332 220.333 307.201C220.422 307.069 220.484 306.917 220.52 306.745H221.121C221.076 306.999 220.994 307.226 220.874 307.427C220.754 307.627 220.606 307.798 220.428 307.939C220.25 308.078 220.05 308.184 219.829 308.256C219.609 308.329 219.373 308.366 219.123 308.366C218.699 308.366 218.322 308.262 217.993 308.055C217.663 307.848 217.403 307.554 217.214 307.172C217.025 306.791 216.93 306.338 216.93 305.814C216.93 305.29 217.025 304.837 217.214 304.456C217.403 304.074 217.663 303.78 217.993 303.573C218.322 303.366 218.699 303.262 219.123 303.262C219.373 303.262 219.609 303.299 219.829 303.372C220.05 303.444 220.25 303.551 220.428 303.692C220.606 303.831 220.754 304.001 220.874 304.201C220.994 304.4 221.076 304.627 221.121 304.883ZM222.297 308.298H221.666L223.49 303.33H224.111L225.935 308.298H225.305L223.82 304.116H223.781L222.297 308.298ZM222.53 306.357H225.072V306.891H222.53V306.357ZM230.648 303.33V308.298H230.066L227.359 304.398H227.31V308.298H226.709V303.33H227.291L230.007 307.24H230.056V303.33H230.648ZM221.121 312.883H220.52C220.484 312.71 220.422 312.558 220.333 312.427C220.246 312.296 220.139 312.186 220.013 312.097C219.888 312.006 219.75 311.938 219.598 311.893C219.446 311.848 219.288 311.825 219.123 311.825C218.822 311.825 218.55 311.901 218.305 312.053C218.063 312.205 217.87 312.429 217.726 312.725C217.583 313.021 217.512 313.384 217.512 313.814C217.512 314.244 217.583 314.607 217.726 314.903C217.87 315.199 218.063 315.423 218.305 315.575C218.55 315.727 218.822 315.803 219.123 315.803C219.288 315.803 219.446 315.78 219.598 315.735C219.75 315.69 219.888 315.623 220.013 315.534C220.139 315.443 220.246 315.332 220.333 315.201C220.422 315.069 220.484 314.917 220.52 314.745H221.121C221.076 314.999 220.994 315.226 220.874 315.427C220.754 315.627 220.606 315.798 220.428 315.939C220.25 316.078 220.05 316.184 219.829 316.256C219.609 316.329 219.373 316.366 219.123 316.366C218.699 316.366 218.322 316.262 217.993 316.055C217.663 315.848 217.403 315.554 217.214 315.172C217.025 314.791 216.93 314.338 216.93 313.814C216.93 313.29 217.025 312.837 217.214 312.456C217.403 312.074 217.663 311.78 217.993 311.573C218.322 311.366 218.699 311.262 219.123 311.262C219.373 311.262 219.609 311.299 219.829 311.372C220.05 311.444 220.25 311.551 220.428 311.692C220.606 311.831 220.754 312.001 220.874 312.201C220.994 312.4 221.076 312.627 221.121 312.883ZM222.093 316.298V311.33H225.091V311.864H222.695V313.542H224.936V314.076H222.695V315.764H225.13V316.298H222.093ZM226.175 316.298V311.33H226.777V315.764H229.086V316.298H226.175Z" fill="white"/>
<path d="M196.405 152.779H259.522C260.497 152.779 261.295 153.565 261.295 154.543V160.855C261.295 161.825 260.505 162.619 259.522 162.619H196.405C195.43 162.619 194.632 161.833 194.632 160.855V154.543C194.632 153.573 195.422 152.779 196.405 152.779V152.779Z" fill="url(#paint99_linear_40_168)"/>
<path d="M218.106 158.238H218.765L219.318 158.966L219.464 159.16L220.288 160.256H219.629L219.085 159.529L218.95 159.344L218.106 158.238ZM220.492 157.307C220.492 157.831 220.398 158.284 220.208 158.665C220.019 159.047 219.76 159.341 219.43 159.548C219.1 159.755 218.723 159.858 218.3 159.858C217.876 159.858 217.499 159.755 217.169 159.548C216.839 159.341 216.58 159.047 216.391 158.665C216.202 158.284 216.107 157.831 216.107 157.307C216.107 156.783 216.202 156.33 216.391 155.949C216.58 155.567 216.839 155.273 217.169 155.066C217.499 154.859 217.876 154.755 218.3 154.755C218.723 154.755 219.1 154.859 219.43 155.066C219.76 155.273 220.019 155.567 220.208 155.949C220.398 156.33 220.492 156.783 220.492 157.307ZM219.91 157.307C219.91 156.877 219.838 156.514 219.694 156.218C219.552 155.922 219.359 155.698 219.115 155.546C218.872 155.394 218.6 155.318 218.3 155.318C217.999 155.318 217.726 155.394 217.482 155.546C217.24 155.698 217.046 155.922 216.903 156.218C216.76 156.514 216.689 156.877 216.689 157.307C216.689 157.737 216.76 158.1 216.903 158.396C217.046 158.692 217.24 158.916 217.482 159.068C217.726 159.22 217.999 159.296 218.3 159.296C218.6 159.296 218.872 159.22 219.115 159.068C219.359 158.916 219.552 158.692 219.694 158.396C219.838 158.1 219.91 157.737 219.91 157.307ZM221.504 159.791V154.823H223.182C223.57 154.823 223.889 154.89 224.138 155.022C224.387 155.153 224.571 155.333 224.691 155.563C224.81 155.793 224.87 156.054 224.87 156.346C224.87 156.639 224.81 156.899 224.691 157.125C224.571 157.351 224.387 157.529 224.14 157.659C223.893 157.786 223.576 157.85 223.192 157.85H221.833V157.307H223.172C223.437 157.307 223.651 157.268 223.813 157.191C223.976 157.113 224.094 157.003 224.167 156.861C224.241 156.717 224.278 156.545 224.278 156.346C224.278 156.148 224.241 155.974 224.167 155.825C224.092 155.676 223.973 155.561 223.81 155.481C223.647 155.398 223.431 155.357 223.163 155.357H222.105V159.791H221.504ZM223.842 157.559L225.064 159.791H224.366L223.163 157.559H223.842ZM220.298 164.376H219.697C219.661 164.203 219.599 164.051 219.51 163.92C219.423 163.789 219.316 163.679 219.19 163.59C219.065 163.499 218.927 163.431 218.775 163.386C218.623 163.341 218.465 163.318 218.3 163.318C217.999 163.318 217.726 163.394 217.482 163.546C217.24 163.698 217.046 163.922 216.903 164.218C216.76 164.514 216.689 164.877 216.689 165.307C216.689 165.737 216.76 166.1 216.903 166.396C217.046 166.692 217.24 166.916 217.482 167.068C217.726 167.22 217.999 167.296 218.3 167.296C218.465 167.296 218.623 167.273 218.775 167.228C218.927 167.183 219.065 167.115 219.19 167.027C219.316 166.936 219.423 166.825 219.51 166.694C219.599 166.562 219.661 166.41 219.697 166.238H220.298C220.253 166.492 220.17 166.719 220.051 166.92C219.931 167.12 219.782 167.291 219.604 167.432C219.427 167.571 219.227 167.677 219.005 167.749C218.785 167.822 218.55 167.858 218.3 167.858C217.876 167.858 217.499 167.755 217.169 167.548C216.839 167.341 216.58 167.047 216.391 166.665C216.202 166.284 216.107 165.831 216.107 165.307C216.107 164.783 216.202 164.33 216.391 163.949C216.58 163.567 216.839 163.273 217.169 163.066C217.499 162.859 217.876 162.755 218.3 162.755C218.55 162.755 218.785 162.792 219.005 162.865C219.227 162.937 219.427 163.044 219.604 163.185C219.782 163.324 219.931 163.494 220.051 163.694C220.17 163.893 220.253 164.12 220.298 164.376ZM225.461 165.307C225.461 165.831 225.367 166.284 225.177 166.665C224.988 167.047 224.729 167.341 224.399 167.548C224.069 167.755 223.692 167.858 223.269 167.858C222.845 167.858 222.468 167.755 222.138 167.548C221.809 167.341 221.549 167.047 221.36 166.665C221.171 166.284 221.076 165.831 221.076 165.307C221.076 164.783 221.171 164.33 221.36 163.949C221.549 163.567 221.809 163.273 222.138 163.066C222.468 162.859 222.845 162.755 223.269 162.755C223.692 162.755 224.069 162.859 224.399 163.066C224.729 163.273 224.988 163.567 225.177 163.949C225.367 164.33 225.461 164.783 225.461 165.307ZM224.879 165.307C224.879 164.877 224.807 164.514 224.663 164.218C224.521 163.922 224.328 163.698 224.084 163.546C223.841 163.394 223.569 163.318 223.269 163.318C222.968 163.318 222.695 163.394 222.451 163.546C222.209 163.698 222.016 163.922 221.872 164.218C221.729 164.514 221.658 164.877 221.658 165.307C221.658 165.737 221.729 166.1 221.872 166.396C222.016 166.692 222.209 166.916 222.451 167.068C222.695 167.22 222.968 167.296 223.269 167.296C223.569 167.296 223.841 167.22 224.084 167.068C224.328 166.916 224.521 166.692 224.663 166.396C224.807 166.1 224.879 165.737 224.879 165.307ZM228.006 167.791H226.473V162.823H228.073C228.555 162.823 228.968 162.923 229.31 163.122C229.653 163.319 229.916 163.603 230.099 163.973C230.281 164.342 230.373 164.783 230.373 165.297C230.373 165.815 230.281 166.26 230.096 166.634C229.912 167.006 229.644 167.292 229.291 167.492C228.939 167.691 228.51 167.791 228.006 167.791ZM227.074 167.257H227.967C228.377 167.257 228.718 167.178 228.988 167.019C229.258 166.861 229.459 166.635 229.592 166.343C229.724 166.05 229.791 165.701 229.791 165.297C229.791 164.896 229.725 164.551 229.594 164.262C229.463 163.971 229.268 163.747 229.007 163.592C228.747 163.435 228.423 163.357 228.035 163.357H227.074V167.257ZM231.382 167.791V162.823H234.38V163.357H231.983V165.035H234.224V165.569H231.983V167.257H234.418V167.791H231.382Z" fill="white"/>
<path d="M174.237 237.85H179.554V249.019C183.452 254.303 189.903 266.216 184.284 272.21C176.589 280.419 165.039 272.319 158 260.832C154.506 255.122 159.436 247.548 163.628 242.682C166.274 239.606 170.163 237.85 174.237 237.85V237.85Z" fill="url(#paint100_linear_40_168)"/>
<path style="mix-blend-mode:multiply" d="M168.097 239.263C171.129 244.129 179.546 249.019 179.546 249.019V237.85H174.229C172.078 237.85 169.987 238.352 168.097 239.263V239.263Z" fill="url(#paint101_linear_40_168)"/>
<path d="M161.394 279.291C156.841 284.424 158.454 292.458 164.544 295.635C171.692 299.363 183.082 303.685 187.686 296.421C192.952 288.119 182.343 280.729 174.775 276.758C170.365 274.442 164.913 275.395 161.57 279.082C161.511 279.149 161.452 279.216 161.385 279.283L161.394 279.291Z" fill="url(#paint102_linear_40_168)"/>
<path d="M174.237 204.895H179.554V216.064C183.452 221.348 189.903 233.261 184.284 239.255C176.589 247.464 165.039 239.364 158 227.877C154.506 222.167 159.436 214.593 163.628 209.727C166.274 206.651 170.163 204.895 174.237 204.895V204.895Z" fill="url(#paint103_linear_40_168)"/>
</g>
<defs>
<filter id="filter0_d_40_168" x="137.568" y="334.559" width="61.8401" height="61.679" filterUnits="userSpaceOnUse" color-interpolation-filters="sRGB">
<feFlood flood-opacity="0" result="BackgroundImageFix"/>
<feColorMatrix in="SourceAlpha" type="matrix" values="0 0 0 0 0 0 0 0 0 0 0 0 0 0 0 0 0 0 127 0" result="hardAlpha"/>
<feOffset dx="7" dy="7"/>
<feGaussianBlur stdDeviation="7"/>
<feColorMatrix type="matrix" values="0 0 0 0 0.686275 0 0 0 0 0.694118 0 0 0 0 0.698039 0 0 0 0.57 0"/>
<feBlend mode="normal" in2="BackgroundImageFix" result="effect1_dropShadow_40_168"/>
<feBlend mode="normal" in="SourceGraphic" in2="effect1_dropShadow_40_168" result="shape"/>
</filter>
<filter id="filter1_d_40_168" x="183.495" y="334.552" width="61.8352" height="61.6741" filterUnits="userSpaceOnUse" color-interpolation-filters="sRGB">
<feFlood flood-opacity="0" result="BackgroundImageFix"/>
<feColorMatrix in="SourceAlpha" type="matrix" values="0 0 0 0 0 0 0 0 0 0 0 0 0 0 0 0 0 0 127 0" result="hardAlpha"/>
<feOffset dx="7" dy="7"/>
<feGaussianBlur stdDeviation="7"/>
<feColorMatrix type="matrix" values="0 0 0 0 0.686275 0 0 0 0 0.694118 0 0 0 0 0.698039 0 0 0 0.57 0"/>
<feBlend mode="normal" in2="BackgroundImageFix" result="effect1_dropShadow_40_168"/>
<feBlend mode="normal" in="SourceGraphic" in2="effect1_dropShadow_40_168" result="shape"/>
</filter>
<filter id="filter2_d_40_168" x="226.888" y="334.553" width="61.8352" height="61.6741" filterUnits="userSpaceOnUse" color-interpolation-filters="sRGB">
<feFlood flood-opacity="0" result="BackgroundImageFix"/>
<feColorMatrix in="SourceAlpha" type="matrix" values="0 0 0 0 0 0 0 0 0 0 0 0 0 0 0 0 0 0 127 0" result="hardAlpha"/>
<feOffset dx="7" dy="7"/>
<feGaussianBlur stdDeviation="7"/>
<feColorMatrix type="matrix" values="0 0 0 0 0.686275 0 0 0 0 0.694118 0 0 0 0 0.698039 0 0 0 0.57 0"/>
<feBlend mode="normal" in2="BackgroundImageFix" result="effect1_dropShadow_40_168"/>
<feBlend mode="normal" in="SourceGraphic" in2="effect1_dropShadow_40_168" result="shape"/>
</filter>
<filter id="filter3_d_40_168" x="72.418" y="66.6182" width="168.893" height="172.277" filterUnits="userSpaceOnUse" color-interpolation-filters="sRGB">
<feFlood flood-opacity="0" result="BackgroundImageFix"/>
<feColorMatrix in="SourceAlpha" type="matrix" values="0 0 0 0 0 0 0 0 0 0 0 0 0 0 0 0 0 0 127 0" result="hardAlpha"/>
<feOffset dx="7" dy="7"/>
<feGaussianBlur stdDeviation="7"/>
<feColorMatrix type="matrix" values="0 0 0 0 0.764706 0 0 0 0 0.780392 0 0 0 0 0.788235 0 0 0 0.57 0"/>
<feBlend mode="normal" in2="BackgroundImageFix" result="effect1_dropShadow_40_168"/>
<feBlend mode="normal" in="SourceGraphic" in2="effect1_dropShadow_40_168" result="shape"/>
</filter>
<linearGradient id="paint0_linear_40_168" x1="115.378" y1="134.446" x2="133.531" y2="134.446" gradientUnits="userSpaceOnUse">
<stop stop-color="#3B3C53"/>
<stop offset="1" stop-color="#3C4075"/>
</linearGradient>
<linearGradient id="paint1_linear_40_168" x1="121.326" y1="5.1937e-05" x2="127.592" y2="5.1937e-05" gradientUnits="userSpaceOnUse">
<stop stop-color="#3B3C53"/>
<stop offset="1" stop-color="#3C4075"/>
</linearGradient>
<linearGradient id="paint2_linear_40_168" x1="166.19" y1="-6.01653e-06" x2="184.342" y2="-6.01653e-06" gradientUnits="userSpaceOnUse">
<stop stop-color="#3B3C53"/>
<stop offset="1" stop-color="#3C4075"/>
</linearGradient>
<linearGradient id="paint3_linear_40_168" x1="172.137" y1="4.52637e-05" x2="178.395" y2="4.52637e-05" gradientUnits="userSpaceOnUse">
<stop stop-color="#3B3C53"/>
<stop offset="1" stop-color="#3C4075"/>
</linearGradient>
<linearGradient id="paint4_linear_40_168" x1="0.499959" y1="185.007" x2="1.33996" y2="185.007" gradientUnits="userSpaceOnUse">
<stop stop-color="#3B3C53"/>
<stop offset="1" stop-color="#3C4075"/>
</linearGradient>
<linearGradient id="paint5_linear_40_168" x1="121.326" y1="185.007" x2="127.592" y2="185.007" gradientUnits="userSpaceOnUse">
<stop stop-color="#3B3C53"/>
<stop offset="1" stop-color="#3C4075"/>
</linearGradient>
<linearGradient id="paint6_linear_40_168" x1="145.35" y1="142.989" x2="161.133" y2="142.989" gradientUnits="userSpaceOnUse">
<stop stop-color="#3B3C53"/>
<stop offset="1" stop-color="#3C4075"/>
</linearGradient>
<linearGradient id="paint7_linear_40_168" x1="153.96" y1="128.986" x2="161.133" y2="128.986" gradientUnits="userSpaceOnUse">
<stop stop-color="#3B3C53"/>
<stop offset="1" stop-color="#3C4075"/>
</linearGradient>
<linearGradient id="paint8_linear_40_168" x1="138.588" y1="127.498" x2="143.468" y2="127.498" gradientUnits="userSpaceOnUse">
<stop stop-color="#3B3C53"/>
<stop offset="1" stop-color="#3C4075"/>
</linearGradient>
<linearGradient id="paint9_linear_40_168" x1="174.96" y1="154.585" x2="184.342" y2="154.585" gradientUnits="userSpaceOnUse">
<stop stop-color="#3B3C53"/>
<stop offset="1" stop-color="#3C4075"/>
</linearGradient>
<linearGradient id="paint10_linear_40_168" x1="160.041" y1="175.025" x2="165.938" y2="175.025" gradientUnits="userSpaceOnUse">
<stop stop-color="#3B3C53"/>
<stop offset="1" stop-color="#3C4075"/>
</linearGradient>
<linearGradient id="paint11_linear_40_168" x1="138.588" y1="176.622" x2="143.468" y2="176.622" gradientUnits="userSpaceOnUse">
<stop stop-color="#3B3C53"/>
<stop offset="1" stop-color="#3C4075"/>
</linearGradient>
<linearGradient id="paint12_linear_40_168" x1="135.9" y1="169.039" x2="143.233" y2="169.039" gradientUnits="userSpaceOnUse">
<stop stop-color="#3B3C53"/>
<stop offset="1" stop-color="#3C4075"/>
</linearGradient>
<linearGradient id="paint13_linear_40_168" x1="135.849" y1="149.335" x2="143.468" y2="149.335" gradientUnits="userSpaceOnUse">
<stop stop-color="#3B3C53"/>
<stop offset="1" stop-color="#3C4075"/>
</linearGradient>
<linearGradient id="paint14_linear_40_168" x1="115.387" y1="158.823" x2="120.586" y2="158.823" gradientUnits="userSpaceOnUse">
<stop stop-color="#3B3C53"/>
<stop offset="1" stop-color="#3C4075"/>
</linearGradient>
<linearGradient id="paint15_linear_40_168" x1="115.387" y1="151.876" x2="121.93" y2="151.876" gradientUnits="userSpaceOnUse">
<stop stop-color="#3B3C53"/>
<stop offset="1" stop-color="#3C4075"/>
</linearGradient>
<linearGradient id="paint16_linear_40_168" x1="152.616" y1="190.675" x2="158.832" y2="190.675" gradientUnits="userSpaceOnUse">
<stop stop-color="#3B3C53"/>
<stop offset="1" stop-color="#3C4075"/>
</linearGradient>
<linearGradient id="paint17_linear_40_168" x1="115.387" y1="167.551" x2="121.813" y2="167.551" gradientUnits="userSpaceOnUse">
<stop stop-color="#3B3C53"/>
<stop offset="1" stop-color="#3C4075"/>
</linearGradient>
<linearGradient id="paint18_linear_40_168" x1="123.56" y1="167.551" x2="133.203" y2="167.551" gradientUnits="userSpaceOnUse">
<stop stop-color="#3B3C53"/>
<stop offset="1" stop-color="#3C4075"/>
</linearGradient>
<linearGradient id="paint19_linear_40_168" x1="135.9" y1="163.864" x2="139.251" y2="163.864" gradientUnits="userSpaceOnUse">
<stop stop-color="#3B3C53"/>
<stop offset="1" stop-color="#3C4075"/>
</linearGradient>
<linearGradient id="paint20_linear_40_168" x1="161.713" y1="164.232" x2="164.98" y2="164.232" gradientUnits="userSpaceOnUse">
<stop stop-color="#3B3C53"/>
<stop offset="1" stop-color="#3C4075"/>
</linearGradient>
<linearGradient id="paint21_linear_40_168" x1="181.268" y1="165.645" x2="184.342" y2="165.645" gradientUnits="userSpaceOnUse">
<stop stop-color="#3B3C53"/>
<stop offset="1" stop-color="#3C4075"/>
</linearGradient>
<linearGradient id="paint22_linear_40_168" x1="138.588" y1="139.386" x2="146.954" y2="139.386" gradientUnits="userSpaceOnUse">
<stop stop-color="#3B3C53"/>
<stop offset="1" stop-color="#3C4075"/>
</linearGradient>
<linearGradient id="paint23_linear_40_168" x1="138.588" y1="183.025" x2="143.468" y2="183.025" gradientUnits="userSpaceOnUse">
<stop stop-color="#3B3C53"/>
<stop offset="1" stop-color="#3C4075"/>
</linearGradient>
<linearGradient id="paint24_linear_40_168" x1="155.068" y1="182.415" x2="158.832" y2="182.415" gradientUnits="userSpaceOnUse">
<stop stop-color="#3B3C53"/>
<stop offset="1" stop-color="#3C4075"/>
</linearGradient>
<linearGradient id="paint25_linear_40_168" x1="175.606" y1="186.57" x2="184.342" y2="186.57" gradientUnits="userSpaceOnUse">
<stop stop-color="#3B3C53"/>
<stop offset="1" stop-color="#3C4075"/>
</linearGradient>
<linearGradient id="paint26_linear_40_168" x1="168.517" y1="151.625" x2="173.204" y2="151.625" gradientUnits="userSpaceOnUse">
<stop stop-color="#3B3C53"/>
<stop offset="1" stop-color="#3C4075"/>
</linearGradient>
<linearGradient id="paint27_linear_40_168" x1="145.35" y1="172.45" x2="172.431" y2="172.45" gradientUnits="userSpaceOnUse">
<stop stop-color="#3B3C53"/>
<stop offset="1" stop-color="#3C4075"/>
</linearGradient>
<linearGradient id="paint28_linear_40_168" x1="174.909" y1="172.216" x2="178.975" y2="172.216" gradientUnits="userSpaceOnUse">
<stop stop-color="#3B3C53"/>
<stop offset="1" stop-color="#3C4075"/>
</linearGradient>
<linearGradient id="paint29_linear_40_168" x1="178.992" y1="175.568" x2="181.68" y2="175.568" gradientUnits="userSpaceOnUse">
<stop stop-color="#3B3C53"/>
<stop offset="1" stop-color="#3C4075"/>
</linearGradient>
<linearGradient id="paint30_linear_40_168" x1="168.13" y1="181.353" x2="177.463" y2="181.353" gradientUnits="userSpaceOnUse">
<stop stop-color="#3B3C53"/>
<stop offset="1" stop-color="#3C4075"/>
</linearGradient>
<linearGradient id="paint31_linear_40_168" x1="168.483" y1="190.424" x2="172.952" y2="190.424" gradientUnits="userSpaceOnUse">
<stop stop-color="#3B3C53"/>
<stop offset="1" stop-color="#3C4075"/>
</linearGradient>
<linearGradient id="paint32_linear_40_168" x1="160.167" y1="183.736" x2="166.106" y2="183.736" gradientUnits="userSpaceOnUse">
<stop stop-color="#3B3C53"/>
<stop offset="1" stop-color="#3C4075"/>
</linearGradient>
<linearGradient id="paint33_linear_40_168" x1="164.082" y1="188.359" x2="166.106" y2="188.359" gradientUnits="userSpaceOnUse">
<stop stop-color="#3B3C53"/>
<stop offset="1" stop-color="#3C4075"/>
</linearGradient>
<linearGradient id="paint34_linear_40_168" x1="160.167" y1="192.564" x2="166.106" y2="192.564" gradientUnits="userSpaceOnUse">
<stop stop-color="#3B3C53"/>
<stop offset="1" stop-color="#3C4075"/>
</linearGradient>
<linearGradient id="paint35_linear_40_168" x1="129.432" y1="150.865" x2="133.203" y2="150.865" gradientUnits="userSpaceOnUse">
<stop stop-color="#3B3C53"/>
<stop offset="1" stop-color="#3C4075"/>
</linearGradient>
<linearGradient id="paint36_linear_40_168" x1="152.616" y1="154.618" x2="174.069" y2="154.618" gradientUnits="userSpaceOnUse">
<stop stop-color="#3B3C53"/>
<stop offset="1" stop-color="#3C4075"/>
</linearGradient>
<linearGradient id="paint37_linear_40_168" x1="145.35" y1="152.771" x2="152.616" y2="152.771" gradientUnits="userSpaceOnUse">
<stop stop-color="#3B3C53"/>
<stop offset="1" stop-color="#3C4075"/>
</linearGradient>
<linearGradient id="paint38_linear_40_168" x1="145.35" y1="130.625" x2="152.616" y2="130.625" gradientUnits="userSpaceOnUse">
<stop stop-color="#3B3C53"/>
<stop offset="1" stop-color="#3C4075"/>
</linearGradient>
<linearGradient id="paint39_linear_40_168" x1="121.813" y1="162.059" x2="152.616" y2="162.059" gradientUnits="userSpaceOnUse">
<stop stop-color="#3B3C53"/>
<stop offset="1" stop-color="#3C4075"/>
</linearGradient>
<linearGradient id="paint40_linear_40_168" x1="138.588" y1="190.725" x2="150.381" y2="190.725" gradientUnits="userSpaceOnUse">
<stop stop-color="#3B3C53"/>
<stop offset="1" stop-color="#3C4075"/>
</linearGradient>
<linearGradient id="paint41_linear_40_168" x1="154.262" y1="131.152" x2="156.992" y2="131.152" gradientUnits="userSpaceOnUse">
<stop stop-color="#3B3C53"/>
<stop offset="1" stop-color="#3C4075"/>
</linearGradient>
<linearGradient id="paint42_linear_40_168" x1="174.909" y1="163.07" x2="180.613" y2="163.07" gradientUnits="userSpaceOnUse">
<stop stop-color="#3B3C53"/>
<stop offset="1" stop-color="#3C4075"/>
</linearGradient>
<linearGradient id="paint43_linear_40_168" x1="124.954" y1="154.459" x2="127.298" y2="154.459" gradientUnits="userSpaceOnUse">
<stop stop-color="#3B3C53"/>
<stop offset="1" stop-color="#3C4075"/>
</linearGradient>
<linearGradient id="paint44_linear_40_168" x1="162.998" y1="145.598" x2="165.333" y2="145.598" gradientUnits="userSpaceOnUse">
<stop stop-color="#3B3C53"/>
<stop offset="1" stop-color="#3C4075"/>
</linearGradient>
<linearGradient id="paint45_linear_40_168" x1="200.092" y1="151.575" x2="83.5636" y2="34.4889" gradientUnits="userSpaceOnUse">
<stop stop-color="#3B3C53"/>
<stop offset="1" stop-color="#3C4075"/>
</linearGradient>
<linearGradient id="paint46_linear_40_168" x1="412.142" y1="417.39" x2="268.186" y2="228.952" gradientUnits="userSpaceOnUse">
<stop stop-color="#ED978A"/>
<stop offset="1" stop-color="#F9B9B2"/>
</linearGradient>
<linearGradient id="paint47_linear_40_168" x1="368.252" y1="478.627" x2="262.374" y2="352.745" gradientUnits="userSpaceOnUse">
<stop stop-color="#ED978A"/>
<stop offset="1" stop-color="#F9B9B2"/>
</linearGradient>
<linearGradient id="paint48_linear_40_168" x1="180.73" y1="199.729" x2="164.187" y2="191.801" gradientUnits="userSpaceOnUse">
<stop stop-color="#ED978A"/>
<stop offset="1" stop-color="#F9B9B2"/>
</linearGradient>
<linearGradient id="paint49_linear_40_168" x1="172.683" y1="209.986" x2="169.644" y2="198.192" gradientUnits="userSpaceOnUse">
<stop stop-color="#ED978A"/>
<stop offset="1" stop-color="white"/>
</linearGradient>
<linearGradient id="paint50_linear_40_168" x1="301.573" y1="302.214" x2="135.445" y2="135.291" gradientUnits="userSpaceOnUse">
<stop stop-color="#3B3C53"/>
<stop offset="1" stop-color="#3C4075"/>
</linearGradient>
<linearGradient id="paint51_linear_40_168" x1="203.612" y1="204.109" x2="216.548" y2="204.109" gradientUnits="userSpaceOnUse">
<stop stop-color="#3B3C53"/>
<stop offset="1" stop-color="#3C4075"/>
</linearGradient>
<linearGradient id="paint52_linear_40_168" x1="207.854" y1="204.109" x2="212.306" y2="204.109" gradientUnits="userSpaceOnUse">
<stop stop-color="#3B3C53"/>
<stop offset="1" stop-color="#3C4075"/>
</linearGradient>
<linearGradient id="paint53_linear_40_168" x1="239.808" y1="204.109" x2="252.744" y2="204.109" gradientUnits="userSpaceOnUse">
<stop stop-color="#3B3C53"/>
<stop offset="1" stop-color="#3C4075"/>
</linearGradient>
<linearGradient id="paint54_linear_40_168" x1="244.041" y1="204.109" x2="248.502" y2="204.109" gradientUnits="userSpaceOnUse">
<stop stop-color="#3B3C53"/>
<stop offset="1" stop-color="#3C4075"/>
</linearGradient>
<linearGradient id="paint55_linear_40_168" x1="203.612" y1="240.133" x2="216.548" y2="240.133" gradientUnits="userSpaceOnUse">
<stop stop-color="#3B3C53"/>
<stop offset="1" stop-color="#3C4075"/>
</linearGradient>
<linearGradient id="paint56_linear_40_168" x1="207.854" y1="240.133" x2="212.306" y2="240.133" gradientUnits="userSpaceOnUse">
<stop stop-color="#3B3C53"/>
<stop offset="1" stop-color="#3C4075"/>
</linearGradient>
<linearGradient id="paint57_linear_40_168" x1="224.965" y1="210.195" x2="236.204" y2="210.195" gradientUnits="userSpaceOnUse">
<stop stop-color="#3B3C53"/>
<stop offset="1" stop-color="#3C4075"/>
</linearGradient>
<linearGradient id="paint58_linear_40_168" x1="231.097" y1="200.214" x2="236.204" y2="200.214" gradientUnits="userSpaceOnUse">
<stop stop-color="#3B3C53"/>
<stop offset="1" stop-color="#3C4075"/>
</linearGradient>
<linearGradient id="paint59_linear_40_168" x1="220.143" y1="199.16" x2="223.621" y2="199.16" gradientUnits="userSpaceOnUse">
<stop stop-color="#3B3C53"/>
<stop offset="1" stop-color="#3C4075"/>
</linearGradient>
<linearGradient id="paint60_linear_40_168" x1="246.057" y1="218.455" x2="252.744" y2="218.455" gradientUnits="userSpaceOnUse">
<stop stop-color="#3B3C53"/>
<stop offset="1" stop-color="#3C4075"/>
</linearGradient>
<linearGradient id="paint61_linear_40_168" x1="235.431" y1="233.018" x2="239.631" y2="233.018" gradientUnits="userSpaceOnUse">
<stop stop-color="#3B3C53"/>
<stop offset="1" stop-color="#3C4075"/>
</linearGradient>
<linearGradient id="paint62_linear_40_168" x1="220.143" y1="234.155" x2="223.621" y2="234.155" gradientUnits="userSpaceOnUse">
<stop stop-color="#3B3C53"/>
<stop offset="1" stop-color="#3C4075"/>
</linearGradient>
<linearGradient id="paint63_linear_40_168" x1="218.228" y1="228.755" x2="223.461" y2="228.755" gradientUnits="userSpaceOnUse">
<stop stop-color="#3B3C53"/>
<stop offset="1" stop-color="#3C4075"/>
</linearGradient>
<linearGradient id="paint64_linear_40_168" x1="218.194" y1="214.718" x2="223.621" y2="214.718" gradientUnits="userSpaceOnUse">
<stop stop-color="#3B3C53"/>
<stop offset="1" stop-color="#3C4075"/>
</linearGradient>
<linearGradient id="paint65_linear_40_168" x1="203.62" y1="221.473" x2="207.325" y2="221.473" gradientUnits="userSpaceOnUse">
<stop stop-color="#3B3C53"/>
<stop offset="1" stop-color="#3C4075"/>
</linearGradient>
<linearGradient id="paint66_linear_40_168" x1="203.62" y1="216.524" x2="208.282" y2="216.524" gradientUnits="userSpaceOnUse">
<stop stop-color="#3B3C53"/>
<stop offset="1" stop-color="#3C4075"/>
</linearGradient>
<linearGradient id="paint67_linear_40_168" x1="230.139" y1="244.162" x2="234.566" y2="244.162" gradientUnits="userSpaceOnUse">
<stop stop-color="#3B3C53"/>
<stop offset="1" stop-color="#3C4075"/>
</linearGradient>
<linearGradient id="paint68_linear_40_168" x1="203.62" y1="227.693" x2="208.19" y2="227.693" gradientUnits="userSpaceOnUse">
<stop stop-color="#3B3C53"/>
<stop offset="1" stop-color="#3C4075"/>
</linearGradient>
<linearGradient id="paint69_linear_40_168" x1="209.442" y1="227.693" x2="216.304" y2="227.693" gradientUnits="userSpaceOnUse">
<stop stop-color="#3B3C53"/>
<stop offset="1" stop-color="#3C4075"/>
</linearGradient>
<linearGradient id="paint70_linear_40_168" x1="218.228" y1="225.068" x2="220.622" y2="225.068" gradientUnits="userSpaceOnUse">
<stop stop-color="#3B3C53"/>
<stop offset="1" stop-color="#3C4075"/>
</linearGradient>
<linearGradient id="paint71_linear_40_168" x1="236.616" y1="225.327" x2="238.951" y2="225.327" gradientUnits="userSpaceOnUse">
<stop stop-color="#3B3C53"/>
<stop offset="1" stop-color="#3C4075"/>
</linearGradient>
<linearGradient id="paint72_linear_40_168" x1="250.551" y1="226.33" x2="252.744" y2="226.33" gradientUnits="userSpaceOnUse">
<stop stop-color="#3B3C53"/>
<stop offset="1" stop-color="#3C4075"/>
</linearGradient>
<linearGradient id="paint73_linear_40_168" x1="220.143" y1="207.629" x2="226.107" y2="207.629" gradientUnits="userSpaceOnUse">
<stop stop-color="#3B3C53"/>
<stop offset="1" stop-color="#3C4075"/>
</linearGradient>
<linearGradient id="paint74_linear_40_168" x1="220.143" y1="238.711" x2="223.621" y2="238.711" gradientUnits="userSpaceOnUse">
<stop stop-color="#3B3C53"/>
<stop offset="1" stop-color="#3C4075"/>
</linearGradient>
<linearGradient id="paint75_linear_40_168" x1="231.886" y1="238.285" x2="234.566" y2="238.285" gradientUnits="userSpaceOnUse">
<stop stop-color="#3B3C53"/>
<stop offset="1" stop-color="#3C4075"/>
</linearGradient>
<linearGradient id="paint76_linear_40_168" x1="246.519" y1="241.236" x2="252.744" y2="241.236" gradientUnits="userSpaceOnUse">
<stop stop-color="#3B3C53"/>
<stop offset="1" stop-color="#3C4075"/>
</linearGradient>
<linearGradient id="paint77_linear_40_168" x1="241.471" y1="216.348" x2="244.806" y2="216.348" gradientUnits="userSpaceOnUse">
<stop stop-color="#3B3C53"/>
<stop offset="1" stop-color="#3C4075"/>
</linearGradient>
<linearGradient id="paint78_linear_40_168" x1="224.965" y1="231.187" x2="244.251" y2="231.187" gradientUnits="userSpaceOnUse">
<stop stop-color="#3B3C53"/>
<stop offset="1" stop-color="#3C4075"/>
</linearGradient>
<linearGradient id="paint79_linear_40_168" x1="246.024" y1="231.012" x2="248.922" y2="231.012" gradientUnits="userSpaceOnUse">
<stop stop-color="#3B3C53"/>
<stop offset="1" stop-color="#3C4075"/>
</linearGradient>
<linearGradient id="paint80_linear_40_168" x1="248.93" y1="233.403" x2="250.845" y2="233.403" gradientUnits="userSpaceOnUse">
<stop stop-color="#3B3C53"/>
<stop offset="1" stop-color="#3C4075"/>
</linearGradient>
<linearGradient id="paint81_linear_40_168" x1="241.194" y1="237.524" x2="247.838" y2="237.524" gradientUnits="userSpaceOnUse">
<stop stop-color="#3B3C53"/>
<stop offset="1" stop-color="#3C4075"/>
</linearGradient>
<linearGradient id="paint82_linear_40_168" x1="241.446" y1="243.987" x2="244.629" y2="243.987" gradientUnits="userSpaceOnUse">
<stop stop-color="#3B3C53"/>
<stop offset="1" stop-color="#3C4075"/>
</linearGradient>
<linearGradient id="paint83_linear_40_168" x1="235.515" y1="239.221" x2="239.749" y2="239.221" gradientUnits="userSpaceOnUse">
<stop stop-color="#3B3C53"/>
<stop offset="1" stop-color="#3C4075"/>
</linearGradient>
<linearGradient id="paint84_linear_40_168" x1="238.304" y1="242.515" x2="239.749" y2="242.515" gradientUnits="userSpaceOnUse">
<stop stop-color="#3B3C53"/>
<stop offset="1" stop-color="#3C4075"/>
</linearGradient>
<linearGradient id="paint85_linear_40_168" x1="235.515" y1="245.516" x2="239.749" y2="245.516" gradientUnits="userSpaceOnUse">
<stop stop-color="#3B3C53"/>
<stop offset="1" stop-color="#3C4075"/>
</linearGradient>
<linearGradient id="paint86_linear_40_168" x1="213.616" y1="215.805" x2="216.304" y2="215.805" gradientUnits="userSpaceOnUse">
<stop stop-color="#3B3C53"/>
<stop offset="1" stop-color="#3C4075"/>
</linearGradient>
<linearGradient id="paint87_linear_40_168" x1="230.139" y1="218.48" x2="245.427" y2="218.48" gradientUnits="userSpaceOnUse">
<stop stop-color="#3B3C53"/>
<stop offset="1" stop-color="#3C4075"/>
</linearGradient>
<linearGradient id="paint88_linear_40_168" x1="224.965" y1="217.168" x2="230.139" y2="217.168" gradientUnits="userSpaceOnUse">
<stop stop-color="#3B3C53"/>
<stop offset="1" stop-color="#3C4075"/>
</linearGradient>
<linearGradient id="paint89_linear_40_168" x1="224.965" y1="201.392" x2="230.139" y2="201.392" gradientUnits="userSpaceOnUse">
<stop stop-color="#3B3C53"/>
<stop offset="1" stop-color="#3C4075"/>
</linearGradient>
<linearGradient id="paint90_linear_40_168" x1="208.19" y1="223.78" x2="230.139" y2="223.78" gradientUnits="userSpaceOnUse">
<stop stop-color="#3B3C53"/>
<stop offset="1" stop-color="#3C4075"/>
</linearGradient>
<linearGradient id="paint91_linear_40_168" x1="220.143" y1="244.204" x2="228.552" y2="244.204" gradientUnits="userSpaceOnUse">
<stop stop-color="#3B3C53"/>
<stop offset="1" stop-color="#3C4075"/>
</linearGradient>
<linearGradient id="paint92_linear_40_168" x1="231.315" y1="201.76" x2="233.256" y2="201.76" gradientUnits="userSpaceOnUse">
<stop stop-color="#3B3C53"/>
<stop offset="1" stop-color="#3C4075"/>
</linearGradient>
<linearGradient id="paint93_linear_40_168" x1="246.024" y1="224.499" x2="250.081" y2="224.499" gradientUnits="userSpaceOnUse">
<stop stop-color="#3B3C53"/>
<stop offset="1" stop-color="#3C4075"/>
</linearGradient>
<linearGradient id="paint94_linear_40_168" x1="210.433" y1="218.363" x2="212.104" y2="218.363" gradientUnits="userSpaceOnUse">
<stop stop-color="#3B3C53"/>
<stop offset="1" stop-color="#3C4075"/>
</linearGradient>
<linearGradient id="paint95_linear_40_168" x1="237.531" y1="212.051" x2="239.203" y2="212.051" gradientUnits="userSpaceOnUse">
<stop stop-color="#3B3C53"/>
<stop offset="1" stop-color="#3C4075"/>
</linearGradient>
<linearGradient id="paint96_linear_40_168" x1="228.174" y1="239.673" x2="228.174" y2="218.397" gradientUnits="userSpaceOnUse">
<stop stop-color="#020202"/>
<stop offset="0.08" stop-color="#363636"/>
<stop offset="0.17" stop-color="#656565"/>
<stop offset="0.26" stop-color="#8E8E8E"/>
<stop offset="0.35" stop-color="#B1B1B1"/>
<stop offset="0.45" stop-color="#CDCDCD"/>
<stop offset="0.56" stop-color="#E3E3E3"/>
<stop offset="0.67" stop-color="#F3F3F3"/>
<stop offset="0.81" stop-color="#FCFCFC"/>
<stop offset="1" stop-color="white"/>
</linearGradient>
<linearGradient id="paint97_linear_40_168" x1="231.676" y1="295.367" x2="208.427" y2="272.007" gradientUnits="userSpaceOnUse">
<stop stop-color="#3B3C53"/>
<stop offset="1" stop-color="#3C4075"/>
</linearGradient>
<linearGradient id="paint98_linear_40_168" x1="241.303" y1="319.16" x2="200.715" y2="278.378" gradientUnits="userSpaceOnUse">
<stop stop-color="#3B3C53"/>
<stop offset="1" stop-color="#3C4075"/>
</linearGradient>
<linearGradient id="paint99_linear_40_168" x1="194.632" y1="157.695" x2="261.295" y2="157.695" gradientUnits="userSpaceOnUse">
<stop stop-color="#3B3C53"/>
<stop offset="1" stop-color="#3C4075"/>
</linearGradient>
<linearGradient id="paint100_linear_40_168" x1="156.807" y1="256.702" x2="186.476" y2="256.702" gradientUnits="userSpaceOnUse">
<stop stop-color="#ED978A"/>
<stop offset="1" stop-color="#F9B9B2"/>
</linearGradient>
<linearGradient id="paint101_linear_40_168" x1="177.236" y1="239.205" x2="172.671" y2="245.88" gradientUnits="userSpaceOnUse">
<stop stop-color="#ED978A"/>
<stop offset="1" stop-color="white"/>
</linearGradient>
<linearGradient id="paint102_linear_40_168" x1="158.773" y1="287.935" x2="189.105" y2="287.935" gradientUnits="userSpaceOnUse">
<stop stop-color="#ED978A"/>
<stop offset="1" stop-color="#F9B9B2"/>
</linearGradient>
<linearGradient id="paint103_linear_40_168" x1="156.807" y1="223.747" x2="186.476" y2="223.747" gradientUnits="userSpaceOnUse">
<stop stop-color="#ED978A"/>
<stop offset="1" stop-color="#F9B9B2"/>
</linearGradient>
<clipPath id="clip0_40_168">
<rect width="420" height="418" fill="white" transform="translate(0.5)"/>
</clipPath>
</defs>
</svg>
